# Blender 5.2.2 LTS
# www.blender.org
mtllib maddening_corruption.mtl
o Keyblade
v 0.000000 12.462995 8.533615
v 0.000000 12.462993 -8.513068
v 0.000000 72.181808 7.388113
v 0.000000 72.181808 -7.367569
v 0.000000 74.094551 8.868941
v 0.000000 74.094551 -8.848398
v 0.000000 11.056948 10.433286
v 0.000000 11.056946 -10.412739
v 0.000000 8.693088 11.226137
v 0.000000 8.693086 -11.205593
v 0.000000 10.043863 12.695415
v 0.000000 10.043861 -12.674871
v 0.000000 7.933275 12.055312
v 0.000000 7.933273 -12.034768
v 0.000000 5.588177 15.151303
v 0.000000 5.588175 -15.130757
v 0.000000 2.891315 17.951488
v 0.000000 2.891313 -17.930943
v 0.000000 4.181119 14.798389
v 0.000000 4.181116 -14.777843
v 0.000000 4.767393 12.510607
v 0.000000 4.767390 -12.490061
v 0.000000 0.428963 14.037825
v 0.000000 0.428960 -14.017279
v 0.000000 -1.622997 14.037825
v 0.000000 -1.623000 -14.017279
v 0.000000 -2.971428 13.292711
v 0.000000 -2.971431 -13.272165
v 0.000000 -8.130642 13.292712
v 0.000000 -8.130645 -13.272164
v 0.000000 -5.551035 12.855786
v 0.000000 -5.551038 -12.835240
v 0.000000 17.830883 6.927980
v 0.000000 17.830883 -6.907434
v 0.000000 22.634121 7.730796
v 0.000000 22.634121 -7.710252
v 0.000000 -10.720020 15.906775
v 0.000000 -10.720023 -15.886228
v 0.000000 -9.254334 10.714269
v 0.000000 -9.254337 -10.693721
v 0.000000 -11.110869 9.334108
v 0.000000 -11.110872 -9.313560
v 0.000000 -14.268785 4.481934
v 0.000000 -14.268785 -4.461386
v 0.000000 -15.361360 2.215848
v 0.000000 -15.361361 -2.195300
v 0.000000 -8.179499 2.077023
v 0.000000 -8.179500 -2.056475
v 0.000000 8.285040 2.296667
v 0.000000 8.285039 -2.276119
v 0.000000 8.969027 5.469449
v 0.000000 8.969026 -5.448901
v 0.000000 6.379649 8.950562
v 0.000000 6.379647 -8.930014
v 0.000000 2.226873 9.315666
v 0.000000 2.226870 -9.295116
v 0.000000 -7.739792 9.315666
v 0.000000 -7.739794 -9.295116
v 0.000000 -9.400903 7.041536
v 0.000000 -9.400905 -7.020987
v 0.000000 -10.475740 4.435781
v 0.000000 -10.475740 -4.415231
v 0.000000 -8.532914 2.333456
v 0.000000 -8.532915 -2.312908
v 0.000000 -8.933452 2.333456
v 0.000000 -8.933453 -2.312908
v 0.000000 -9.333989 2.029320
v 0.000000 -9.333990 -2.008772
v 0.000000 -9.991735 2.095624
v 0.000000 -10.040821 -2.075077
v 0.000000 95.369278 8.868941
v 0.000000 95.369278 -8.848398
v 0.000000 100.215195 0.010272
v 0.000000 84.731918 13.182484
v 0.000000 84.731918 -13.161940
v 0.000000 79.413239 12.460032
v 0.000000 79.413239 -12.439487
v 0.000000 90.050598 12.287344
v 0.000000 90.050598 -12.266801
v 0.000000 98.552048 5.245260
v 0.000000 98.552048 -5.224717
v 0.000000 74.136765 15.065953
v 0.000000 74.136765 -15.045407
v 0.000000 82.072578 16.794481
v 0.000000 82.072578 -16.773935
v 0.000000 89.079727 19.435812
v 0.000000 89.079727 -19.415270
v 0.000000 95.664764 19.050163
v 0.000000 95.664764 -19.029623
v 0.000000 102.196671 15.999529
v 0.000000 102.196671 -15.978984
v 0.000000 106.308098 9.981401
v 0.000000 106.308098 -9.960856
v 0.000000 25.018852 6.274667
v 0.000000 25.018852 -6.254123
v 0.000000 28.237381 7.404141
v 0.000000 28.237381 -7.383596
v 0.000000 32.278042 -6.481658
v 0.000000 32.278042 6.502203
v 0.700134 72.181808 5.985416
v 0.700134 72.181808 -5.964872
v 1.166758 72.181808 3.734186
v 1.166758 72.181808 -3.713644
v 1.166758 32.299610 3.921317
v 1.166758 32.299610 -3.900774
v 0.700134 32.315155 5.157446
v 0.700134 32.315155 -5.136902
v 1.615004 72.181808 0.851871
v 1.615004 72.181808 -0.831328
v 1.615004 32.299610 0.894162
v 1.615004 32.299610 -0.873619
v 0.700134 28.211235 6.601358
v 0.700134 28.211235 -6.580814
v 0.700134 24.988083 5.371673
v 0.700134 24.988083 -5.351130
v 1.166758 28.256535 3.921317
v 1.166758 28.256535 -3.900774
v 1.615004 28.228260 0.894162
v 1.615004 28.228260 -0.873619
v 1.166758 24.976837 3.921317
v 1.166758 24.976837 -3.900774
v 1.615004 24.948563 0.894162
v 1.615004 24.948563 -0.873619
v 1.211425 74.387123 7.372890
v 0.992715 74.387123 -7.352348
v 2.182446 74.760330 5.710847
v 2.182446 74.760330 -5.690304
v 2.707814 74.997826 0.851871
v 2.707814 74.997826 -0.831328
v 1.211425 75.337105 9.132686
v 0.992715 75.337105 -9.112144
v 1.211425 78.526329 11.835925
v 0.992715 78.526329 -11.815383
v 1.599223 76.321014 8.539041
v 1.380513 76.321014 -8.518497
v 2.182446 76.694221 6.613750
v 2.182446 76.694221 -6.593206
v 3.273715 77.203140 0.851871
v 3.273715 77.203140 -0.831328
v 1.599223 79.001320 11.085502
v 1.380513 79.001320 -11.064959
v 1.599223 90.229645 9.677787
v 1.380513 90.229645 -9.657245
v 1.599223 95.295052 6.490428
v 1.380513 95.295052 -6.469886
v 2.089286 84.615479 11.085501
v 1.870576 84.615479 -11.064960
v 1.211425 80.703369 11.835925
v 0.992715 80.703369 -11.815383
v 1.211425 84.124435 11.835924
v 0.992715 84.124435 -11.815384
v 0.802132 22.639517 6.865359
v 0.802132 22.639517 -6.844816
v 1.268755 22.628271 5.010934
v 1.268755 22.628271 -4.990391
v 1.717001 22.599997 1.140414
v 1.717001 22.599997 -1.119871
v 0.700134 17.822508 5.918989
v 0.700134 17.822508 -5.898446
v 1.166758 17.811262 4.320574
v 1.166758 17.811262 -4.300031
v 1.615004 17.782988 0.984394
v 1.615004 17.782988 -0.963851
v 1.211425 86.131836 12.653398
v 0.992715 86.131836 -12.632857
v 1.211425 89.072258 11.940258
v 0.992715 89.072258 -11.919717
v 2.089286 80.847107 11.085502
v 1.870576 80.847107 -11.064959
v 2.347748 80.847107 10.329981
v 2.129038 80.847107 -10.309438
v 2.347748 84.607452 10.329980
v 2.129038 84.607452 -10.309439
v 2.347748 90.092461 8.696571
v 2.129038 90.092461 -8.676030
v 1.599223 97.556915 3.718987
v 1.380513 97.556915 -3.698445
v 1.489868 99.083672 0.010271
v 1.211425 90.118370 11.782310
v 0.992715 90.118370 -11.761769
v 0.000000 16.856905 6.116291
v 0.000000 16.856905 -6.095745
v 0.000000 14.659949 5.860565
v 0.000000 14.659949 -5.840018
v 0.000000 13.561473 7.600177
v 0.000000 13.561471 -7.579630
v 0.000000 15.758427 5.552855
v 0.000000 15.758427 -5.532308
v 0.700134 16.921030 5.373779
v 0.700134 16.921030 -5.353236
v 1.166758 16.909784 3.922853
v 1.166758 16.909784 -3.902310
v 1.615004 16.881510 0.894509
v 1.615004 16.881510 -0.873966
v 1.211425 93.177536 12.039189
v 0.992715 93.177536 -12.018649
v 1.211425 95.275414 8.056021
v 0.992715 95.275414 -8.035482
v 1.211425 98.057503 8.056021
v 0.992715 98.057503 -8.035482
v 1.211425 97.209305 6.166924
v 0.992715 97.209305 -6.146385
v 1.211425 99.516403 2.559343
v 0.992715 99.516403 -2.538804
v 2.347748 95.045937 5.230808
v 2.129038 95.045937 -5.210268
v 2.347748 97.119308 2.974830
v 2.129038 97.119308 -2.954289
v 2.238393 98.226677 0.010270
v 0.423831 15.733553 4.981295
v 0.423831 15.733553 -4.960751
v 0.890455 15.722307 3.636543
v 0.890455 15.722307 -3.615999
v 1.338701 15.694033 0.829804
v 1.338701 15.694033 -0.809260
v 0.423831 14.516232 4.981295
v 0.423831 14.516232 -4.960751
v 0.890455 14.504986 3.636543
v 0.890455 14.504986 -3.615999
v 1.338701 14.476711 0.829804
v 1.338701 14.476711 -0.809260
v 2.238393 84.709793 0.010270
v 1.455541 13.432424 6.918046
v 1.455541 13.432422 -6.897502
v 1.922165 13.421177 5.049369
v 1.922165 13.421177 -5.028825
v 2.370411 13.392902 1.149100
v 2.370411 13.392902 -1.128557
v 1.455541 10.940756 6.918046
v 1.455541 10.940754 -6.897502
v 1.922165 10.929509 5.049369
v 1.922165 10.929509 -5.028825
v 2.370411 10.901235 1.149100
v 2.370411 10.901235 -1.128557
v 1.455541 12.254370 7.646829
v 1.455541 12.254368 -7.626285
v 0.000000 7.706917 2.281833
v 0.000000 7.706916 -2.261286
v 0.000000 7.126075 2.077023
v 0.000000 7.126074 -2.056475
v 2.370411 8.201528 1.149100
v 2.370411 8.201528 -1.128557
v 1.185205 8.243284 2.046936
v 1.185205 8.243283 -2.026391
v 1.455541 9.193309 6.918047
v 1.455541 9.193307 -6.897502
v 1.922165 9.182062 5.049369
v 1.922165 9.182062 -5.028824
v 1.185205 9.688581 2.046936
v 1.185205 9.688581 -2.026391
v 2.163512 7.706917 1.170991
v 2.163512 7.706916 -1.150443
v 1.081756 7.706916 -2.052421
v 1.081756 7.706917 2.072969
v 1.615004 72.181808 0.010272
v 1.615004 32.299610 0.010272
v 1.615004 28.228260 0.010272
v 1.615004 24.948563 0.010272
v 2.707814 74.997826 0.010272
v 3.273715 77.203140 0.010272
v 1.717001 22.599997 0.010272
v 1.615004 17.782988 0.010272
v 1.615004 16.881510 0.010272
v 1.338701 15.694033 0.010272
v 1.338701 14.476711 0.010272
v 2.370411 13.392902 0.010272
v 2.370411 10.901235 0.010272
v 2.370411 8.201528 0.010272
v 2.361611 7.706917 0.010274
v 1.799458 7.127434 1.170991
v 1.799458 7.127433 -1.150443
v 0.717703 7.127433 -1.889036
v 0.717703 7.127434 1.909584
v 1.997558 7.127434 0.010274
v 1.799458 -8.224287 1.170991
v 1.799458 -8.224288 -1.150443
v 1.997558 -8.224287 0.010274
v 0.717703 -8.196976 -1.889036
v 0.717703 -8.196974 1.909584
v 2.016919 -8.600610 1.259707
v 2.016919 -8.600611 -1.239159
v 2.215018 -8.600610 0.010274
v 0.935163 -8.573298 -2.034204
v 0.935163 -8.573297 2.054752
v 2.016919 -8.993295 1.259707
v 2.016919 -8.993296 -1.239159
v 2.215018 -8.993295 0.010274
v 0.935163 -8.965983 -2.034204
v 0.935163 -8.965981 2.054752
v 1.535032 -9.381212 1.054547
v 1.535032 -9.381213 -1.033999
v 1.733131 -9.381212 0.010274
v 0.935163 -9.353901 -1.698496
v 0.935163 -9.353899 1.719044
v 1.535032 -10.068411 1.054547
v 1.535032 -10.068412 -1.033999
v 1.733131 -10.068411 0.010274
v 0.935163 -10.041100 -1.698496
v 0.935163 -10.041098 1.719044
v 1.455541 9.357450 8.803427
v 1.455541 9.357448 -8.782883
v 1.455541 10.671063 9.731120
v 1.455541 10.671062 -9.682302
v 1.455541 7.681470 8.801094
v 1.455541 7.681469 -8.780550
v 1.455541 8.324377 10.606868
v 1.455541 8.324375 -10.558050
v 0.443946 8.324377 11.688014
v 0.443946 8.324375 -11.639196
v 1.455541 6.437445 9.934854
v 1.455541 6.437443 -9.914310
v 1.455541 2.224719 10.367888
v 1.455541 2.224717 -10.347342
v 1.455541 6.437445 11.569442
v 1.455541 6.437443 -11.548898
v 1.455541 2.224719 12.073798
v 1.455541 2.224717 -12.053252
v 0.443946 7.702364 11.844166
v 0.443946 7.702362 -11.795348
v 0.443946 4.818484 14.924330
v 0.443946 4.818483 -14.875510
v 0.000000 2.258898 13.612617
v 0.000000 2.258895 -13.592071
v 0.000000 -0.013947 9.698213
v 0.000000 -0.013949 -9.677663
v 1.455541 -0.008874 10.999973
v 1.455541 -0.008875 -10.979427
v 1.455541 0.160766 12.809988
v 1.455541 0.160765 -12.789442
v 0.902267 -1.931460 10.999973
v 0.902267 -1.931462 -10.979427
v 0.902267 -1.761820 12.809988
v 0.902267 -1.761822 -12.789442
v 0.000000 -1.869463 9.965125
v 0.000000 -1.869466 -9.944576
v 0.902267 -3.175486 11.092925
v 0.902267 -3.175488 -11.072379
v 0.902267 -3.005847 12.418292
v 0.902267 -3.005848 -12.397746
v 0.000000 -3.193048 10.102694
v 0.000000 -3.193051 -10.082145
v 0.000000 -5.466420 9.976743
v 0.000000 -5.466423 -9.956195
v 0.902267 -5.496161 10.780378
v 0.902267 -5.496162 -10.759832
v 0.902267 -5.448662 12.068368
v 0.902267 -5.448663 -12.047822
v 0.000000 -6.840838 12.768458
v 0.000000 -6.840841 -12.747910
v 0.000000 -6.603106 9.814445
v 0.000000 -6.603108 -9.793896
v 0.902267 -6.683640 10.780379
v 0.902267 -6.683642 -10.759831
v 0.902267 -6.771853 12.068369
v 0.902267 -6.771855 -12.047821
v 0.902267 -7.871120 10.638814
v 0.902267 -7.871122 -10.618266
v 0.902267 -7.959333 11.909874
v 0.902267 -7.959335 -11.889326
v 0.902267 -9.203361 13.354315
v 0.902267 -9.203362 -13.333767
v 0.000000 -10.185093 -13.289974
v 0.000000 -10.185091 13.310522
v 0.902267 -8.468254 10.721966
v 0.902267 -8.468256 -10.701418
v 0.902267 -8.742881 9.325904
v 0.902267 -8.742883 -9.305356
v 0.902267 -10.274353 7.063097
v 0.902267 -10.274355 -7.042548
v 0.902267 -11.311043 4.463844
v 0.902267 -11.311043 -4.443295
v 0.902267 -10.830397 2.098745
v 0.902267 -10.830397 -2.078197
v 1.324864 -10.830397 1.671619
v 1.324864 -10.830397 -1.651071
v 1.699948 -10.893049 1.054547
v 1.699948 -10.893050 -1.033999
v 1.898048 -10.893049 0.010274
v 0.902267 -9.881921 9.401674
v 0.902267 -9.881923 -9.322224
v 0.902267 -11.507637 7.098942
v 0.902267 -11.507639 -7.019491
v 0.902267 -12.685693 4.490786
v 0.902267 -12.685693 -4.411335
v 0.000000 -12.845264 7.107097
v 0.000000 -12.845267 -7.086549
v 0.902267 -13.533893 2.186399
v 0.902267 -13.533893 -2.106948
v 1.324864 -13.610607 1.671619
v 1.324864 -13.610607 -1.651071
v 1.699948 -13.673260 1.054547
v 1.699948 -13.673261 -1.033999
v 1.898048 -13.673260 0.010274
v 1.324864 -15.500783 1.671619
v 1.324864 -15.500783 -1.651071
v 1.699948 -15.563436 1.054547
v 1.699948 -15.563437 -1.033999
v 1.898048 -15.563436 0.010274
v 0.902267 -15.391344 2.186399
v 0.902267 -15.391344 -2.106948
v 0.000000 -15.640402 0.010274
v 0.000000 52.229927 -6.470123
v 0.000000 52.229927 6.490667
v 1.166758 52.240707 3.554957
v 1.166758 52.240707 -3.534414
v 0.700134 52.248482 5.210908
v 0.700134 52.248482 -5.190364
v 1.615004 52.240707 0.811366
v 1.615004 52.240707 -0.790822
v 1.615004 52.240707 0.010272
v -0.700134 72.181808 5.985416
v -0.700134 72.181808 -5.964872
v -1.166758 72.181808 3.734186
v -1.166758 72.181808 -3.713644
v -1.166758 32.299610 3.921317
v -1.166758 32.299610 -3.900774
v -0.700134 32.315155 5.157446
v -0.700134 32.315155 -5.136902
v -1.615004 72.181808 0.851871
v -1.615004 72.181808 -0.831328
v -1.615004 32.299610 0.894162
v -1.615004 32.299610 -0.873619
v -0.700134 28.211235 6.601358
v -0.700134 28.211235 -6.580814
v -0.700134 24.988083 5.371673
v -0.700134 24.988083 -5.351130
v -1.166758 28.256535 3.921317
v -1.166758 28.256535 -3.900774
v -1.615004 28.228260 0.894162
v -1.615004 28.228260 -0.873619
v -1.166758 24.976837 3.921317
v -1.166758 24.976837 -3.900774
v -1.615004 24.948563 0.894162
v -1.615004 24.948563 -0.873619
v -1.211425 74.387123 7.372890
v -0.992715 74.387123 -7.352348
v -2.182446 74.760330 5.710847
v -2.182446 74.760330 -5.690304
v -2.707814 74.997826 0.851871
v -2.707814 74.997826 -0.831328
v -1.211425 75.337105 9.132686
v -0.992715 75.337105 -9.112144
v -1.211425 78.526329 11.835925
v -0.992715 78.526329 -11.815383
v -1.599223 76.321014 8.539041
v -1.380513 76.321014 -8.518497
v -2.182446 76.694221 6.613750
v -2.182446 76.694221 -6.593206
v -3.273715 77.203140 0.851871
v -3.273715 77.203140 -0.831328
v -1.599223 79.001320 11.085502
v -1.380513 79.001320 -11.064959
v -1.599223 90.229645 9.677787
v -1.380513 90.229645 -9.657245
v -1.599223 95.295052 6.490428
v -1.380513 95.295052 -6.469886
v -2.089286 84.615479 11.085501
v -1.870576 84.615479 -11.064960
v -1.211425 80.703369 11.835925
v -0.992715 80.703369 -11.815383
v -1.211425 84.124435 11.835924
v -0.992715 84.124435 -11.815384
v -0.802132 22.639517 6.865359
v -0.802132 22.639517 -6.844816
v -1.268755 22.628271 5.010934
v -1.268755 22.628271 -4.990391
v -1.717001 22.599997 1.140414
v -1.717001 22.599997 -1.119871
v -0.700134 17.822508 5.918989
v -0.700134 17.822508 -5.898446
v -1.166758 17.811262 4.320574
v -1.166758 17.811262 -4.300031
v -1.615004 17.782988 0.984394
v -1.615004 17.782988 -0.963851
v -1.211425 86.131836 12.653398
v -0.992715 86.131836 -12.632857
v -1.211425 89.072258 11.940258
v -0.992715 89.072258 -11.919717
v -2.089286 80.847107 11.085502
v -1.870576 80.847107 -11.064959
v -2.347748 80.847107 10.329981
v -2.129038 80.847107 -10.309438
v -2.347748 84.607452 10.329980
v -2.129038 84.607452 -10.309439
v -2.347748 90.092461 8.696571
v -2.129038 90.092461 -8.676030
v -1.599223 97.556915 3.718987
v -1.380513 97.556915 -3.698445
v -1.489868 99.083672 0.010271
v -1.211425 90.118370 11.782310
v -0.992715 90.118370 -11.761769
v -0.700134 16.921030 5.373779
v -0.700134 16.921030 -5.353236
v -1.166758 16.909784 3.922853
v -1.166758 16.909784 -3.902310
v -1.615004 16.881510 0.894509
v -1.615004 16.881510 -0.873966
v -1.211425 93.177536 12.039189
v -0.992715 93.177536 -12.018649
v -1.211425 95.275414 8.056021
v -0.992715 95.275414 -8.035482
v -1.211425 98.057503 8.056021
v -0.992715 98.057503 -8.035482
v -1.211425 97.209305 6.166924
v -0.992715 97.209305 -6.146385
v -1.211425 99.516403 2.559343
v -0.992715 99.516403 -2.538804
v -2.347748 95.045937 5.230808
v -2.129038 95.045937 -5.210268
v -2.347748 97.119308 2.974830
v -2.129038 97.119308 -2.954289
v -2.238393 98.226677 0.010270
v -0.423831 15.733553 4.981295
v -0.423831 15.733553 -4.960751
v -0.890455 15.722307 3.636543
v -0.890455 15.722307 -3.615999
v -1.338701 15.694033 0.829804
v -1.338701 15.694033 -0.809260
v -0.423831 14.516232 4.981295
v -0.423831 14.516232 -4.960751
v -0.890455 14.504986 3.636543
v -0.890455 14.504986 -3.615999
v -1.338701 14.476711 0.829804
v -1.338701 14.476711 -0.809260
v -2.238393 84.709793 0.010270
v -1.455541 13.432424 6.918046
v -1.455541 13.432422 -6.897502
v -1.922165 13.421177 5.049369
v -1.922165 13.421177 -5.028825
v -2.370411 13.392902 1.149100
v -2.370411 13.392902 -1.128557
v -1.455541 10.940756 6.918046
v -1.455541 10.940754 -6.897502
v -1.922165 10.929509 5.049369
v -1.922165 10.929509 -5.028825
v -2.370411 10.901235 1.149100
v -2.370411 10.901235 -1.128557
v -1.455541 12.254370 7.646829
v -1.455541 12.254368 -7.626285
v -2.370411 8.201528 1.149100
v -2.370411 8.201528 -1.128557
v -1.185205 8.243284 2.046936
v -1.185205 8.243283 -2.026391
v -1.455541 9.193309 6.918047
v -1.455541 9.193307 -6.897502
v -1.922165 9.182062 5.049369
v -1.922165 9.182062 -5.028824
v -1.185205 9.688581 2.046936
v -1.185205 9.688581 -2.026391
v -2.163512 7.706917 1.170991
v -2.163512 7.706916 -1.150443
v -1.081756 7.706916 -2.052421
v -1.081756 7.706917 2.072969
v -1.615004 72.181808 0.010272
v -1.615004 32.299610 0.010272
v -1.615004 28.228260 0.010272
v -1.615004 24.948563 0.010272
v -2.707814 74.997826 0.010272
v -3.273715 77.203140 0.010272
v -1.717001 22.599997 0.010272
v -1.615004 17.782988 0.010272
v -1.615004 16.881510 0.010272
v -1.338701 15.694033 0.010272
v -1.338701 14.476711 0.010272
v -2.370411 13.392902 0.010272
v -2.370411 10.901235 0.010272
v -2.370411 8.201528 0.010272
v -2.361611 7.706917 0.010274
v -1.799458 7.127434 1.170991
v -1.799458 7.127433 -1.150443
v -0.717703 7.127433 -1.889036
v -0.717703 7.127434 1.909584
v -1.997558 7.127434 0.010274
v -1.799458 -8.224287 1.170991
v -1.799458 -8.224288 -1.150443
v -1.997558 -8.224287 0.010274
v -0.717703 -8.196976 -1.889036
v -0.717703 -8.196974 1.909584
v -2.016919 -8.600610 1.259707
v -2.016919 -8.600611 -1.239159
v -2.215018 -8.600610 0.010274
v -0.935163 -8.573298 -2.034204
v -0.935163 -8.573297 2.054752
v -2.016919 -8.993295 1.259707
v -2.016919 -8.993296 -1.239159
v -2.215018 -8.993295 0.010274
v -0.935163 -8.965983 -2.034204
v -0.935163 -8.965981 2.054752
v -1.535032 -9.381212 1.054547
v -1.535032 -9.381213 -1.033999
v -1.733131 -9.381212 0.010274
v -0.935163 -9.353901 -1.698496
v -0.935163 -9.353899 1.719044
v -1.535032 -10.068411 1.054547
v -1.535032 -10.068412 -1.033999
v -1.733131 -10.068411 0.010274
v -0.935163 -10.041100 -1.698496
v -0.935163 -10.041098 1.719044
v -1.455541 9.357450 8.803427
v -1.455541 9.357448 -8.782883
v -1.455541 10.671063 9.731120
v -1.455541 10.671062 -9.682302
v -1.455541 7.681470 8.801094
v -1.455541 7.681469 -8.780550
v -1.455541 8.324377 10.606868
v -1.455541 8.324375 -10.558050
v -0.443946 8.324377 11.688014
v -0.443946 8.324375 -11.639196
v -1.455541 6.437445 9.934854
v -1.455541 6.437443 -9.914310
v -1.455541 2.224719 10.367888
v -1.455541 2.224717 -10.347342
v -1.455541 6.437445 11.569442
v -1.455541 6.437443 -11.548898
v -1.455541 2.224719 12.073798
v -1.455541 2.224717 -12.053252
v -0.443946 7.702364 11.844166
v -0.443946 7.702362 -11.795348
v -0.443946 4.818484 14.924330
v -0.443946 4.818483 -14.875510
v -1.455541 -0.008874 10.999973
v -1.455541 -0.008875 -10.979427
v -1.455541 0.160766 12.809988
v -1.455541 0.160765 -12.789442
v -0.902267 -1.931460 10.999973
v -0.902267 -1.931462 -10.979427
v -0.902267 -1.761820 12.809988
v -0.902267 -1.761822 -12.789442
v -0.902267 -3.175486 11.092925
v -0.902267 -3.175488 -11.072379
v -0.902267 -3.005847 12.418292
v -0.902267 -3.005848 -12.397746
v -0.902267 -5.496161 10.780378
v -0.902267 -5.496162 -10.759832
v -0.902267 -5.448662 12.068368
v -0.902267 -5.448663 -12.047822
v -0.902267 -6.683640 10.780379
v -0.902267 -6.683642 -10.759831
v -0.902267 -6.771853 12.068369
v -0.902267 -6.771855 -12.047821
v -0.902267 -7.871120 10.638814
v -0.902267 -7.871122 -10.618266
v -0.902267 -7.959333 11.909874
v -0.902267 -7.959335 -11.889326
v -0.902267 -9.203361 13.354315
v -0.902267 -9.203362 -13.333767
v -0.902267 -8.468254 10.721966
v -0.902267 -8.468256 -10.701418
v -0.902267 -8.742881 9.325904
v -0.902267 -8.742883 -9.305356
v -0.902267 -10.274353 7.063097
v -0.902267 -10.274355 -7.042548
v -0.902267 -11.311043 4.463844
v -0.902267 -11.311043 -4.443295
v -0.902267 -10.830397 2.098745
v -0.902267 -10.830397 -2.078197
v -1.324864 -10.830397 1.671619
v -1.324864 -10.830397 -1.651071
v -1.699948 -10.893049 1.054547
v -1.699948 -10.893050 -1.033999
v -1.898048 -10.893049 0.010274
v -0.902267 -9.881921 9.401674
v -0.902267 -9.881923 -9.322224
v -0.902267 -11.507637 7.098942
v -0.902267 -11.507639 -7.019491
v -0.902267 -12.685693 4.490786
v -0.902267 -12.685693 -4.411335
v -0.902267 -13.533893 2.186399
v -0.902267 -13.533893 -2.106948
v -1.324864 -13.610607 1.671619
v -1.324864 -13.610607 -1.651071
v -1.699948 -13.673260 1.054547
v -1.699948 -13.673261 -1.033999
v -1.898048 -13.673260 0.010274
v -1.324864 -15.500783 1.671619
v -1.324864 -15.500783 -1.651071
v -1.699948 -15.563436 1.054547
v -1.699948 -15.563437 -1.033999
v -1.898048 -15.563436 0.010274
v -0.902267 -15.391344 2.186399
v -0.902267 -15.391344 -2.106948
v -1.166758 52.240707 3.554957
v -1.166758 52.240707 -3.534414
v -0.700134 52.248482 5.210908
v -0.700134 52.248482 -5.190364
v -1.615004 52.240707 0.811366
v -1.615004 52.240707 -0.790822
v -1.615004 52.240707 0.010272
vn 0.9881 0.0017 -0.1535
vn 0.9881 0.0017 0.1535
vn 0.8271 0.1556 0.5401
vn 0.9517 0.0024 0.3071
vn 0.8864 -0.0194 0.4626
vn 0.9517 0.0024 -0.3071
vn 0.8864 -0.0194 -0.4626
vn 1.0000 -0.0000 -0.0000
vn 0.8271 0.1556 -0.5401
vn 0.7488 -0.2279 0.6223
vn 0.7488 -0.2279 -0.6223
vn 0.9892 -0.0000 0.1465
vn 0.9719 0.0411 0.2319
vn 0.9892 -0.0000 -0.1465
vn 0.9719 0.0411 -0.2319
vn 0.9746 -0.0416 0.2199
vn 0.9746 -0.0416 -0.2199
vn 0.7756 -0.4228 0.4688
vn 0.8193 -0.3658 -0.4415
vn 0.8474 -0.4586 0.2676
vn 0.8377 -0.4484 -0.3118
vn 0.9323 -0.3618 -0.0000
vn 0.9131 -0.3945 0.1027
vn 0.9131 -0.3945 -0.1027
vn 0.6243 -0.6874 0.3711
vn 0.6982 -0.6300 -0.3401
vn 0.7808 -0.6247 -0.0043
vn 0.7155 -0.6986 0.0048
vn 0.6180 0.3481 0.7049
vn 0.6923 0.3196 -0.6470
vn 0.8578 -0.3066 -0.4124
vn 0.9028 -0.2697 0.3350
vn 0.9474 -0.2817 0.1520
vn 0.9474 -0.2817 -0.1520
vn 0.9686 -0.2486 -0.0000
vn 0.9770 -0.1635 0.1372
vn 0.9770 -0.1635 -0.1372
vn 0.9749 -0.1440 0.1699
vn 0.9829 -0.1190 -0.1404
vn 0.9308 -0.2437 0.2725
vn 0.9308 -0.2437 -0.2725
vn 0.6463 0.4481 0.6176
vn 0.7085 0.3704 -0.6006
vn 0.7919 0.4917 -0.3620
vn 0.7283 0.5518 0.4063
vn 0.7621 -0.5518 0.3386
vn 0.9714 -0.0000 0.2373
vn 0.8207 -0.4870 -0.2988
vn 0.9805 -0.0000 -0.1963
vn 0.6704 -0.1661 -0.7231
vn 0.6085 -0.1999 0.7679
vn 0.9457 0.1872 -0.2658
vn 0.9886 0.0793 -0.1278
vn 0.9991 0.0434 -0.0000
vn 0.9457 0.1872 0.2658
vn 0.9886 0.0793 0.1278
vn 0.9632 -0.0647 0.2608
vn 0.9918 -0.0319 0.1236
vn 0.9632 -0.0647 -0.2608
vn 0.9918 -0.0319 -0.1236
vn 0.9998 -0.0212 -0.0000
vn 0.7745 -0.1211 0.6209
vn 0.7059 0.3855 0.5942
vn 0.7059 0.3855 -0.5942
vn 0.7745 -0.1211 -0.6209
vn 0.7677 -0.5261 0.3658
vn 0.6433 -0.2887 0.7090
vn 0.7159 -0.2633 -0.6466
vn 0.8254 -0.4635 -0.3223
vn 0.6427 0.7592 0.1031
vn 0.7153 0.6925 -0.0940
vn 0.9908 0.0318 -0.1312
vn 0.9865 0.0387 0.1594
vn 0.9452 0.1286 0.3003
vn 0.9452 0.1286 -0.3003
vn 0.7081 -0.2663 -0.6540
vn 0.7080 -0.2663 0.6540
vn 0.6562 -0.1742 0.7342
vn 0.6562 -0.1742 -0.7342
vn 0.6498 -0.0000 -0.7601
vn 0.6498 -0.0000 0.7601
vn 0.9177 -0.2436 0.3139
vn 0.9177 -0.2436 -0.3139
vn 0.9334 -0.2545 0.2530
vn 0.9133 -0.2712 -0.3037
vn 0.9462 -0.0000 0.3237
vn 0.9462 -0.0000 -0.3237
vn 0.8586 0.1704 0.4836
vn 0.8586 0.1704 -0.4836
vn 0.4421 0.1339 -0.8869
vn 0.3745 0.1384 0.9168
vn 0.9448 -0.1518 0.2903
vn 0.9895 -0.0378 0.1397
vn 0.9448 -0.1518 -0.2903
vn 0.9895 -0.0378 -0.1397
vn 0.7197 -0.4069 0.5625
vn 0.7197 -0.4069 -0.5625
vn 0.9828 0.0276 0.1826
vn 0.9828 0.0276 -0.1826
vn 0.3873 -0.0771 0.9187
vn 0.4562 -0.0745 -0.8868
vn 0.9042 -0.3286 0.2728
vn 0.9326 -0.2778 -0.2306
vn 0.8833 0.4686 -0.0136
vn 0.9170 0.3986 0.0116
vn 0.9675 0.1417 0.2095
vn 0.9675 0.1417 -0.2095
vn 0.3563 0.8267 0.4354
vn 0.4218 0.8022 -0.4225
vn 0.9002 -0.3146 0.3012
vn 0.5572 -0.0000 0.8304
vn 0.9296 -0.2662 -0.2549
vn 0.6336 -0.0000 -0.7737
vn 0.7493 0.6272 -0.2126
vn 0.8099 0.5556 0.1883
vn 0.9569 0.2249 0.1835
vn 0.9920 0.0881 0.0902
vn 0.9920 0.0881 -0.0902
vn 0.9569 0.2249 -0.1835
vn 0.9175 -0.2073 0.3394
vn 0.9423 -0.1744 -0.2857
vn 0.8888 0.3910 0.2389
vn 0.8464 0.4544 -0.2777
vn 0.6034 0.7945 -0.0690
vn 0.6047 0.7962 0.0172
vn 0.9523 0.2712 -0.1397
vn 0.9705 0.2316 0.0667
vn 0.7479 0.4414 0.4958
vn 0.7977 0.5501 -0.2470
vn 0.6516 0.7298 0.2069
vn 0.8501 0.4804 0.2157
vn 0.7128 0.6698 -0.2080
vn 0.7923 0.4192 -0.4433
vn 0.8117 0.3231 0.4866
vn 0.8117 0.3231 -0.4866
vn 0.7738 0.4797 0.4137
vn 0.7738 0.4797 -0.4137
vn 0.7007 0.6712 0.2420
vn 0.7038 0.6526 -0.2807
vn 0.9049 -0.2976 0.3045
vn 0.9579 -0.2450 0.1495
vn 0.9049 -0.2976 -0.3045
vn 0.9579 -0.2450 -0.1495
vn 0.9740 -0.2266 -0.0000
vn 0.7196 -0.3401 0.6054
vn 0.7196 -0.3401 -0.6054
vn 0.9875 -0.0000 -0.1577
vn 0.9447 -0.0000 0.3278
vn 0.9875 -0.0000 0.1577
vn 0.9447 -0.0000 -0.3278
vn 0.8649 0.0661 0.4976
vn 0.8649 0.0661 -0.4976
vn 0.9993 -0.0000 -0.0369
vn 1.0000 0.0072 -0.0066
vn 1.0000 -0.0072 -0.0066
vn 0.9999 -0.0061 -0.0088
vn 0.9999 0.0061 -0.0088
vn 0.9999 -0.0032 -0.0106
vn 0.9999 0.0032 -0.0106
vn 0.9999 -0.0000 -0.0106
vn 0.9999 0.0025 -0.0115
vn 0.9996 -0.0227 -0.0191
vn 0.9680 0.1556 0.1971
vn 0.9680 0.1556 -0.1971
vn 0.9906 0.1366 -0.0000
vn 0.5774 0.8002 -0.1621
vn 0.6866 0.7220 -0.0857
vn 0.7243 0.6895 -0.0000
vn 0.5774 0.8002 0.1621
vn 0.6866 0.7220 0.0857
vn 0.4271 0.8251 0.3699
vn 0.4271 0.8251 -0.3699
vn 0.9702 -0.0000 -0.2423
vn 0.9935 -0.0000 -0.1142
vn 0.9702 -0.0000 0.2423
vn 0.9935 -0.0000 0.1142
vn 0.4498 0.5267 0.7213
vn 0.4498 0.5267 -0.7213
vn 0.6038 -0.0000 0.7971
vn 0.6038 -0.0000 -0.7971
vn 0.0689 -0.9808 0.1824
vn 0.0688 -0.9808 -0.1824
vn 0.0100 -0.9775 0.2107
vn 0.0100 -0.9775 -0.2107
vn 0.9449 -0.0000 -0.3272
vn 0.9449 -0.0000 0.3272
vn 0.7449 -0.6611 -0.0904
vn 0.7449 -0.6611 0.0904
vn 0.9712 -0.0000 -0.2384
vn 0.9712 -0.0000 0.2384
vn 0.1177 -0.9924 0.0354
vn 0.1177 -0.9924 -0.0354
vn 0.1981 -0.0085 0.9801
vn 0.6132 -0.1485 0.7758
vn 0.6132 -0.1485 -0.7758
vn 0.1981 -0.0085 -0.9801
vn 0.9740 -0.2105 0.0839
vn 0.9740 -0.2105 -0.0839
vn 0.8381 -0.5265 -0.1430
vn 0.5422 -0.4414 0.7150
vn 0.8381 -0.5265 0.1430
vn 0.5422 -0.4414 -0.7150
vn 0.1919 -0.3510 -0.9165
vn 0.1919 -0.3510 0.9165
vn 0.9857 -0.0000 0.1682
vn 0.9857 -0.0000 -0.1682
vn 0.2272 -0.0000 -0.9738
vn 0.2272 -0.0000 0.9738
vn 0.5639 -0.0000 0.8259
vn 0.5639 -0.0000 -0.8259
vn 0.8501 0.5077 0.1397
vn 0.5063 0.5089 -0.6962
vn 0.8501 0.5077 -0.1397
vn 0.5063 0.5089 0.6962
vn 0.2393 0.5219 -0.8188
vn 0.2393 0.5219 0.8188
vn 0.5922 -0.0000 -0.8058
vn 0.9877 -0.0000 0.1566
vn 0.5922 -0.0000 0.8058
vn 0.9877 -0.0000 -0.1566
vn 0.2856 -0.0000 0.9583
vn 0.2856 -0.0000 -0.9583
vn 0.4665 -0.6822 -0.5630
vn 0.6099 -0.7855 0.1053
vn 0.4665 -0.6822 0.5630
vn 0.6099 -0.7855 -0.1053
vn 0.2212 -0.6145 0.7572
vn 0.2212 -0.6145 -0.7572
vn 0.7423 -0.0000 -0.6701
vn 0.9825 -0.0000 0.1864
vn 0.7423 -0.0000 0.6701
vn 0.9825 -0.0000 -0.1864
vn 0.3459 0.0462 0.9371
vn 0.3448 0.0446 -0.9376
vn 0.4457 0.7142 -0.5397
vn 0.4407 0.7180 0.5388
vn 0.5665 -0.6546 -0.5005
vn 0.5665 -0.6546 0.5005
vn 0.4575 0.2969 0.8382
vn 0.4702 0.2947 -0.8319
vn 0.3730 0.8597 -0.3491
vn 0.3646 0.8664 0.3412
vn 0.7961 0.4455 -0.4096
vn 0.7862 0.4549 0.4182
vn 0.7425 -0.1944 -0.6410
vn 0.7233 -0.2004 0.6608
vn 0.4659 -0.5960 -0.6540
vn 0.4659 -0.5960 0.6540
vn 0.5725 -0.0779 -0.8162
vn 0.5725 -0.0779 0.8162
vn 0.6873 0.3377 -0.6431
vn 0.6895 0.3291 0.6452
vn 0.5068 0.2099 0.8361
vn 0.5448 0.2042 -0.8133
vn 0.4938 0.2117 0.8434
vn 0.4757 0.2142 -0.8532
vn 0.7626 0.4937 0.4180
vn 0.8485 0.3812 0.3671
vn 0.8207 -0.5289 -0.2163
vn 0.7734 0.4838 -0.4096
vn 0.8549 0.3737 -0.3599
vn 0.8161 -0.5349 0.2188
vn 0.5723 0.1906 0.7976
vn 0.5723 0.1906 -0.7976
vn 0.7444 -0.6563 -0.1230
vn 0.7433 -0.6573 0.1243
vn 0.7335 0.4961 -0.4645
vn 0.7395 0.4914 0.4601
vn 0.6193 -0.1736 -0.7657
vn 0.6851 0.2082 0.6981
vn 0.6193 -0.1736 0.7657
vn 0.6851 0.2082 -0.6981
vn 0.9607 -0.2765 0.0259
vn 0.9607 -0.2765 -0.0259
vn 0.6940 -0.1514 0.7039
vn 0.6940 -0.1514 -0.7039
vn 0.7096 -0.0988 0.6977
vn 0.7096 -0.0988 -0.6977
vn 0.7446 -0.0597 -0.6648
vn 0.7446 -0.0597 0.6648
vn 0.7169 -0.2800 0.6385
vn 0.7169 -0.2800 -0.6385
vn 0.7036 0.0675 -0.7074
vn 0.7036 0.0675 0.7074
vn 0.6753 -0.1142 0.7286
vn 0.6753 -0.1142 -0.7286
vn 0.6373 -0.0257 0.7702
vn 0.7008 0.0497 -0.7116
vn 0.7008 0.0497 0.7116
vn 0.6373 -0.0257 -0.7702
vn 0.7467 0.0972 0.6581
vn 0.7819 0.1656 -0.6010
vn 0.7819 0.1656 0.6010
vn 0.7467 0.0972 -0.6581
vn 0.6504 0.5755 0.4957
vn 0.6231 0.5557 0.5504
vn 0.6504 0.5755 -0.4957
vn 0.6231 0.5557 -0.5504
vn 0.7323 -0.6669 -0.1374
vn 0.7323 -0.6669 0.1374
vn 0.6857 -0.6935 -0.2210
vn 0.6857 -0.6935 0.2210
vn 0.6820 0.6093 -0.4046
vn 0.6820 0.6093 0.4046
vn 0.6523 0.6199 0.4362
vn 0.6523 0.6199 -0.4362
vn 0.6639 0.6930 -0.2811
vn 0.6639 0.6930 0.2811
vn 0.6609 0.7367 -0.1433
vn 0.6711 0.7262 0.1489
vn 0.3614 0.3919 0.8460
vn 0.3432 0.3955 -0.8519
vn 0.6792 0.2950 0.6720
vn 0.6792 0.2950 -0.6720
vn 0.9640 0.1928 0.1829
vn 0.9640 0.1928 -0.1829
vn 0.7788 0.2508 0.5749
vn 0.7788 0.2508 -0.5749
vn 0.8545 -0.0000 0.5194
vn 0.8545 -0.0000 -0.5194
vn 0.7447 0.0107 0.6673
vn 0.7226 0.0036 -0.6913
vn 0.5617 -0.5268 0.6380
vn 0.7467 -0.5342 0.3963
vn 0.5806 -0.5250 -0.6222
vn 0.7579 -0.5240 -0.3887
vn 0.8231 -0.5086 0.2528
vn 0.8283 -0.5017 -0.2494
vn 0.8675 -0.4578 0.1944
vn 0.8706 -0.4528 -0.1923
vn 0.7729 -0.0000 0.6345
vn 0.7334 -0.0000 -0.6798
vn 0.0326 -0.0000 0.9995
vn 0.0975 -0.0000 -0.9952
vn -0.0289 -0.9917 0.1255
vn 0.0405 -0.9991 0.0077
vn -0.0124 -0.9955 0.0935
vn -0.0783 -0.9863 0.1454
vn -0.0207 -0.9919 -0.1255
vn -0.0890 -0.9841 -0.1537
vn -0.0124 -0.9955 -0.0935
vn 0.0405 -0.9991 -0.0077
vn 0.8823 -0.0005 -0.4707
vn 0.9726 -0.0056 -0.2323
vn 0.8823 -0.0005 0.4707
vn 0.9726 -0.0056 0.2323
vn 0.9875 -0.0009 0.1574
vn 0.9875 -0.0009 -0.1574
vn -0.9881 0.0017 -0.1535
vn -0.9881 0.0017 0.1535
vn -0.8271 0.1556 0.5401
vn -0.9517 0.0024 0.3071
vn -0.8864 -0.0194 0.4626
vn -0.9517 0.0024 -0.3071
vn -0.8864 -0.0194 -0.4626
vn -1.0000 -0.0000 -0.0000
vn -0.8271 0.1556 -0.5401
vn -0.7488 -0.2279 0.6223
vn -0.7488 -0.2279 -0.6223
vn -0.9892 -0.0000 0.1465
vn -0.9719 0.0411 0.2319
vn -0.9892 -0.0000 -0.1465
vn -0.9719 0.0411 -0.2319
vn -0.9746 -0.0416 0.2199
vn -0.9746 -0.0416 -0.2199
vn -0.7756 -0.4228 0.4688
vn -0.8193 -0.3658 -0.4415
vn -0.8474 -0.4586 0.2676
vn -0.8377 -0.4484 -0.3118
vn -0.9323 -0.3618 -0.0000
vn -0.9131 -0.3945 0.1027
vn -0.9131 -0.3945 -0.1027
vn -0.6243 -0.6874 0.3711
vn -0.6982 -0.6300 -0.3401
vn -0.7808 -0.6247 -0.0043
vn -0.7155 -0.6986 0.0048
vn -0.6180 0.3481 0.7049
vn -0.6923 0.3196 -0.6470
vn -0.8578 -0.3066 -0.4124
vn -0.9028 -0.2697 0.3350
vn -0.9474 -0.2817 0.1520
vn -0.9474 -0.2817 -0.1520
vn -0.9686 -0.2486 -0.0000
vn -0.9770 -0.1635 0.1372
vn -0.9770 -0.1635 -0.1372
vn -0.9749 -0.1440 0.1699
vn -0.9829 -0.1190 -0.1404
vn -0.9308 -0.2437 0.2725
vn -0.9308 -0.2437 -0.2725
vn -0.6463 0.4481 0.6176
vn -0.7085 0.3704 -0.6006
vn -0.7919 0.4917 -0.3620
vn -0.7283 0.5518 0.4063
vn -0.7621 -0.5518 0.3386
vn -0.9714 -0.0000 0.2373
vn -0.8207 -0.4870 -0.2988
vn -0.9805 -0.0000 -0.1963
vn -0.6704 -0.1661 -0.7231
vn -0.6085 -0.1999 0.7679
vn -0.9457 0.1872 -0.2658
vn -0.9886 0.0793 -0.1278
vn -0.9991 0.0434 -0.0000
vn -0.9457 0.1872 0.2658
vn -0.9886 0.0793 0.1278
vn -0.9632 -0.0647 0.2608
vn -0.9918 -0.0319 0.1236
vn -0.9632 -0.0647 -0.2608
vn -0.9918 -0.0319 -0.1236
vn -0.9998 -0.0212 -0.0000
vn -0.7745 -0.1211 0.6209
vn -0.7059 0.3855 0.5942
vn -0.7059 0.3855 -0.5942
vn -0.7745 -0.1211 -0.6209
vn -0.7677 -0.5261 0.3658
vn -0.6433 -0.2887 0.7090
vn -0.7159 -0.2633 -0.6466
vn -0.8254 -0.4635 -0.3223
vn -0.6427 0.7592 0.1031
vn -0.7153 0.6925 -0.0940
vn -0.9908 0.0318 -0.1312
vn -0.9865 0.0387 0.1594
vn -0.9452 0.1286 0.3003
vn -0.9452 0.1286 -0.3003
vn -0.7081 -0.2663 -0.6540
vn -0.7080 -0.2663 0.6540
vn -0.6562 -0.1742 0.7342
vn -0.6562 -0.1742 -0.7342
vn -0.6498 -0.0000 -0.7601
vn -0.6498 -0.0000 0.7601
vn -0.9177 -0.2436 0.3139
vn -0.9177 -0.2436 -0.3139
vn -0.9334 -0.2545 0.2530
vn -0.9133 -0.2712 -0.3037
vn -0.9462 -0.0000 0.3237
vn -0.9462 -0.0000 -0.3237
vn -0.8586 0.1704 0.4836
vn -0.8586 0.1704 -0.4836
vn -0.4421 0.1339 -0.8869
vn -0.3745 0.1384 0.9168
vn -0.9448 -0.1518 0.2903
vn -0.9895 -0.0378 0.1397
vn -0.9448 -0.1518 -0.2903
vn -0.9895 -0.0378 -0.1397
vn -0.7197 -0.4069 0.5625
vn -0.7197 -0.4069 -0.5625
vn -0.9828 0.0276 0.1826
vn -0.9828 0.0276 -0.1826
vn -0.3873 -0.0771 0.9187
vn -0.4562 -0.0745 -0.8868
vn -0.9042 -0.3286 0.2728
vn -0.9326 -0.2778 -0.2306
vn -0.8833 0.4686 -0.0136
vn -0.9170 0.3986 0.0116
vn -0.9675 0.1417 0.2095
vn -0.9675 0.1417 -0.2095
vn -0.3563 0.8267 0.4354
vn -0.4218 0.8022 -0.4225
vn -0.9002 -0.3146 0.3012
vn -0.5572 -0.0000 0.8304
vn -0.9296 -0.2662 -0.2549
vn -0.6336 -0.0000 -0.7737
vn -0.7493 0.6272 -0.2126
vn -0.8099 0.5556 0.1883
vn -0.9569 0.2249 0.1835
vn -0.9920 0.0881 0.0902
vn -0.9920 0.0881 -0.0902
vn -0.9569 0.2249 -0.1835
vn -0.9175 -0.2073 0.3394
vn -0.9423 -0.1744 -0.2857
vn -0.8888 0.3910 0.2389
vn -0.8464 0.4544 -0.2777
vn -0.6034 0.7945 -0.0690
vn -0.6047 0.7962 0.0172
vn -0.9523 0.2712 -0.1397
vn -0.9705 0.2316 0.0667
vn -0.7479 0.4414 0.4958
vn -0.7977 0.5501 -0.2470
vn -0.6516 0.7298 0.2069
vn -0.8501 0.4804 0.2157
vn -0.7128 0.6698 -0.2080
vn -0.7923 0.4192 -0.4433
vn -0.8117 0.3231 0.4866
vn -0.8117 0.3231 -0.4866
vn -0.7738 0.4797 0.4137
vn -0.7738 0.4797 -0.4137
vn -0.7007 0.6712 0.2420
vn -0.7038 0.6526 -0.2807
vn -0.9049 -0.2976 0.3045
vn -0.9579 -0.2450 0.1495
vn -0.9049 -0.2976 -0.3045
vn -0.9579 -0.2450 -0.1495
vn -0.9740 -0.2266 -0.0000
vn -0.7196 -0.3401 0.6054
vn -0.7196 -0.3401 -0.6054
vn -0.9875 -0.0000 -0.1577
vn -0.9447 -0.0000 0.3278
vn -0.9875 -0.0000 0.1577
vn -0.9447 -0.0000 -0.3278
vn -0.8649 0.0661 0.4976
vn -0.8649 0.0661 -0.4976
vn -0.9993 -0.0000 -0.0369
vn -1.0000 0.0072 -0.0066
vn -1.0000 -0.0072 -0.0066
vn -0.9999 -0.0061 -0.0088
vn -0.9999 0.0061 -0.0088
vn -0.9999 -0.0032 -0.0106
vn -0.9999 0.0032 -0.0106
vn -0.9999 -0.0000 -0.0106
vn -0.9999 0.0025 -0.0115
vn -0.9996 -0.0227 -0.0191
vn -0.9680 0.1556 0.1971
vn -0.9680 0.1556 -0.1971
vn -0.9906 0.1366 -0.0000
vn -0.5774 0.8002 -0.1621
vn -0.6866 0.7220 -0.0857
vn -0.7243 0.6895 -0.0000
vn -0.5774 0.8002 0.1621
vn -0.6866 0.7220 0.0857
vn -0.4271 0.8251 0.3699
vn -0.4271 0.8251 -0.3699
vn -0.9702 -0.0000 -0.2423
vn -0.9935 -0.0000 -0.1142
vn -0.9702 -0.0000 0.2423
vn -0.9935 -0.0000 0.1142
vn -0.4498 0.5267 0.7213
vn -0.4498 0.5267 -0.7213
vn -0.6038 -0.0000 0.7971
vn -0.6038 -0.0000 -0.7971
vn -0.0689 -0.9808 0.1824
vn -0.0688 -0.9808 -0.1824
vn -0.0100 -0.9775 0.2107
vn -0.0100 -0.9775 -0.2107
vn -0.9449 -0.0000 -0.3272
vn -0.9449 -0.0000 0.3272
vn -0.7449 -0.6611 -0.0904
vn -0.7449 -0.6611 0.0904
vn -0.9712 -0.0000 -0.2384
vn -0.9712 -0.0000 0.2384
vn -0.1177 -0.9924 0.0354
vn -0.1177 -0.9924 -0.0354
vn -0.1981 -0.0085 0.9801
vn -0.6132 -0.1485 0.7758
vn -0.6132 -0.1485 -0.7758
vn -0.1981 -0.0085 -0.9801
vn -0.9740 -0.2105 0.0839
vn -0.9740 -0.2105 -0.0839
vn -0.8381 -0.5265 -0.1430
vn -0.5422 -0.4414 0.7150
vn -0.8381 -0.5265 0.1430
vn -0.5422 -0.4414 -0.7150
vn -0.1919 -0.3510 -0.9165
vn -0.1919 -0.3510 0.9165
vn -0.9857 -0.0000 0.1682
vn -0.9857 -0.0000 -0.1682
vn -0.2272 -0.0000 -0.9738
vn -0.2272 -0.0000 0.9738
vn -0.5639 -0.0000 0.8259
vn -0.5639 -0.0000 -0.8259
vn -0.8501 0.5077 0.1397
vn -0.5063 0.5089 -0.6962
vn -0.8501 0.5077 -0.1397
vn -0.5063 0.5089 0.6962
vn -0.2393 0.5219 -0.8188
vn -0.2393 0.5219 0.8188
vn -0.5922 -0.0000 -0.8058
vn -0.9877 -0.0000 0.1566
vn -0.5922 -0.0000 0.8058
vn -0.9877 -0.0000 -0.1566
vn -0.2856 -0.0000 0.9583
vn -0.2856 -0.0000 -0.9583
vn -0.4665 -0.6822 -0.5630
vn -0.6099 -0.7855 0.1053
vn -0.4665 -0.6822 0.5630
vn -0.6099 -0.7855 -0.1053
vn -0.2212 -0.6145 0.7572
vn -0.2212 -0.6145 -0.7572
vn -0.7423 -0.0000 -0.6701
vn -0.9825 -0.0000 0.1864
vn -0.7423 -0.0000 0.6701
vn -0.9825 -0.0000 -0.1864
vn -0.3459 0.0462 0.9371
vn -0.3448 0.0446 -0.9376
vn -0.4457 0.7142 -0.5397
vn -0.4407 0.7180 0.5388
vn -0.5665 -0.6546 -0.5005
vn -0.5665 -0.6546 0.5005
vn -0.4575 0.2969 0.8382
vn -0.4702 0.2947 -0.8319
vn -0.3730 0.8597 -0.3491
vn -0.3646 0.8664 0.3412
vn -0.7961 0.4455 -0.4096
vn -0.7863 0.4549 0.4182
vn -0.7425 -0.1944 -0.6410
vn -0.7233 -0.2004 0.6608
vn -0.4659 -0.5960 -0.6540
vn -0.4659 -0.5960 0.6540
vn -0.5725 -0.0779 -0.8162
vn -0.5725 -0.0779 0.8162
vn -0.6873 0.3377 -0.6431
vn -0.6895 0.3291 0.6452
vn -0.5068 0.2099 0.8361
vn -0.5448 0.2042 -0.8133
vn -0.4938 0.2117 0.8434
vn -0.4757 0.2142 -0.8532
vn -0.7626 0.4937 0.4180
vn -0.8485 0.3812 0.3671
vn -0.8207 -0.5289 -0.2163
vn -0.7734 0.4838 -0.4096
vn -0.8549 0.3737 -0.3599
vn -0.8161 -0.5349 0.2188
vn -0.5723 0.1906 0.7976
vn -0.5723 0.1906 -0.7976
vn -0.7444 -0.6563 -0.1230
vn -0.7433 -0.6573 0.1243
vn -0.7335 0.4961 -0.4645
vn -0.7395 0.4914 0.4601
vn -0.6193 -0.1736 -0.7657
vn -0.6851 0.2082 0.6981
vn -0.6193 -0.1736 0.7657
vn -0.6851 0.2082 -0.6981
vn -0.9607 -0.2765 0.0259
vn -0.9607 -0.2765 -0.0259
vn -0.6940 -0.1514 0.7039
vn -0.6940 -0.1514 -0.7039
vn -0.7096 -0.0988 0.6977
vn -0.7096 -0.0988 -0.6977
vn -0.7446 -0.0597 -0.6648
vn -0.7446 -0.0597 0.6648
vn -0.7169 -0.2800 0.6385
vn -0.7169 -0.2800 -0.6385
vn -0.7036 0.0675 -0.7074
vn -0.7036 0.0675 0.7074
vn -0.6753 -0.1142 0.7286
vn -0.6753 -0.1142 -0.7286
vn -0.6373 -0.0257 0.7702
vn -0.7008 0.0497 -0.7116
vn -0.7008 0.0497 0.7116
vn -0.6373 -0.0257 -0.7702
vn -0.7467 0.0972 0.6581
vn -0.7819 0.1656 -0.6010
vn -0.7819 0.1656 0.6010
vn -0.7467 0.0972 -0.6581
vn -0.6504 0.5755 0.4957
vn -0.6231 0.5557 0.5504
vn -0.6504 0.5755 -0.4957
vn -0.6231 0.5557 -0.5504
vn -0.7323 -0.6669 -0.1374
vn -0.7323 -0.6669 0.1374
vn -0.6857 -0.6935 -0.2210
vn -0.6857 -0.6935 0.2210
vn -0.6820 0.6093 -0.4046
vn -0.6820 0.6093 0.4046
vn -0.6523 0.6199 0.4362
vn -0.6523 0.6199 -0.4362
vn -0.6639 0.6930 -0.2811
vn -0.6639 0.6930 0.2811
vn -0.6609 0.7367 -0.1433
vn -0.6711 0.7262 0.1489
vn -0.3614 0.3919 0.8460
vn -0.3432 0.3955 -0.8519
vn -0.6792 0.2950 0.6720
vn -0.6792 0.2950 -0.6720
vn -0.9640 0.1928 0.1829
vn -0.9640 0.1928 -0.1829
vn -0.7788 0.2508 0.5749
vn -0.7788 0.2508 -0.5749
vn -0.8545 -0.0000 0.5194
vn -0.8545 -0.0000 -0.5194
vn -0.7447 0.0107 0.6673
vn -0.7226 0.0036 -0.6913
vn -0.5617 -0.5268 0.6380
vn -0.7467 -0.5342 0.3963
vn -0.5806 -0.5250 -0.6222
vn -0.7579 -0.5240 -0.3887
vn -0.8231 -0.5086 0.2528
vn -0.8283 -0.5017 -0.2494
vn -0.8675 -0.4578 0.1944
vn -0.8706 -0.4528 -0.1923
vn -0.7729 -0.0000 0.6345
vn -0.7334 -0.0000 -0.6798
vn -0.0326 -0.0000 0.9995
vn -0.0975 -0.0000 -0.9952
vn 0.0289 -0.9917 0.1255
vn -0.0405 -0.9991 0.0077
vn 0.0124 -0.9955 0.0935
vn 0.0783 -0.9863 0.1454
vn 0.0207 -0.9919 -0.1255
vn 0.0890 -0.9841 -0.1537
vn 0.0124 -0.9955 -0.0935
vn -0.0405 -0.9991 -0.0077
vn -0.8823 -0.0005 -0.4707
vn -0.9726 -0.0056 -0.2323
vn -0.8823 -0.0005 0.4707
vn -0.9726 -0.0056 0.2323
vn -0.9875 -0.0009 0.1574
vn -0.9875 -0.0009 -0.1574
vt 0.482384 0.563706
vt 0.463418 0.546815
vt 0.586757 0.409474
vt 0.607684 0.428110
vt 0.433376 0.520060
vt 0.553610 0.379954
vt 0.574537 0.398590
vt 0.452342 0.536951
vt 0.554543 0.330430
vt 0.560253 0.335192
vt 0.544969 0.372451
vt 0.535902 0.363916
vt 0.421881 0.509919
vt 0.413148 0.501912
vt 0.293807 0.642949
vt 0.284111 0.634313
vt 0.493784 0.573955
vt 0.616133 0.435828
vt 0.502745 0.581705
vt 0.386115 0.725156
vt 0.376419 0.716520
vt 0.457880 0.541883
vt 0.340931 0.684916
vt 0.335113 0.679734
vt 0.651381 0.416347
vt 0.656769 0.421471
vt 0.625658 0.443851
vt 0.582166 0.315134
vt 0.588597 0.320481
vt 0.662723 0.386496
vt 0.668776 0.392267
vt 0.580647 0.404032
vt 0.599602 0.370446
vt 0.605712 0.375887
vt 0.578502 0.352004
vt 0.611822 0.381329
vt 0.632575 0.400161
vt 0.632014 0.358657
vt 0.652766 0.377489
vt 0.598693 0.329332
vt 0.619793 0.347773
vt 0.625904 0.353215
vt 0.270639 0.649652
vt 0.262098 0.638419
vt 0.384576 0.747496
vt 0.372433 0.740308
vt 0.309370 0.656808
vt 0.279831 0.662464
vt 0.360856 0.702661
vt 0.358646 0.732655
vt 0.323594 0.704383
vt 0.317776 0.699201
vt 0.329295 0.674553
vt 0.311958 0.694020
vt 0.252625 0.645385
vt 0.378750 0.757709
vt 0.427156 0.785939
vt 0.218998 0.600559
vt 0.214303 0.650789
vt 0.204528 0.653078
vt 0.377803 0.796398
vt 0.376657 0.806372
vt 0.368589 0.760856
vt 0.352982 0.751583
vt 0.261683 0.670274
vt 0.250671 0.655841
vt 0.310017 0.719628
vt 0.304199 0.714447
vt 0.298381 0.709265
vt 0.216567 0.658693
vt 0.369691 0.795062
vt 0.348907 0.847587
vt 0.343338 0.835098
vt 0.390248 0.851440
vt 0.158192 0.644777
vt 0.179838 0.689489
vt 0.166790 0.685398
vt 0.200900 0.665839
vt 0.364400 0.811448
vt 0.674758 0.367961
vt 0.687508 0.379456
vt 0.648175 0.343937
vt 0.632550 0.330022
vt 0.640363 0.336979
vt 0.592731 0.295049
vt 0.605619 0.306388
vt 0.628929 0.267576
vt 0.640047 0.277339
vt 0.663284 0.297683
vt 0.699641 0.330412
vt 0.710622 0.340330
vt 0.676752 0.309677
vt 0.670018 0.303680
vt 0.621902 0.261422
vt 0.586781 0.289684
vt 0.693524 0.384747
vt 0.717545 0.346600
vt 0.161829 0.698333
vt 0.096794 0.676955
vt 0.336631 0.854007
vt 0.365368 0.916142
vt 0.148656 0.723050
vt 0.140234 0.727676
vt 0.313598 0.869944
vt 0.309974 0.878844
vt 0.157171 0.744980
vt 0.182003 0.697503
vt 0.290832 0.864016
vt 0.335127 0.833872
vt 0.205203 0.671453
vt 0.358327 0.807822
vt 0.210426 0.676104
vt 0.353104 0.803170
vt 0.187275 0.702099
vt 0.329954 0.829165
vt 0.164799 0.750072
vt 0.284894 0.857027
vt 0.306066 0.876203
vt 0.143308 0.731254
vt 0.638247 0.264701
vt 0.648347 0.273556
vt 0.669456 0.292004
vt 0.702442 0.321731
vt 0.712403 0.330742
vt 0.681681 0.302892
vt 0.675568 0.297448
vt 0.633509 0.259686
vt 0.717930 0.334870
vt 0.122698 0.750820
vt 0.289008 0.898932
vt 0.058919 0.724852
vt 0.322162 0.959289
vt 0.131120 0.785489
vt 0.253599 0.894566
vt 0.148020 0.799620
vt 0.137318 0.789845
vt 0.237613 0.879409
vt 0.248557 0.888912
vt 0.120190 0.809078
vt 0.039794 0.788787
vt 0.231429 0.908145
vt 0.260859 0.985663
vt 0.136576 0.829801
vt 0.208954 0.894259
vt 0.153253 0.832318
vt 0.138471 0.814844
vt 0.223592 0.890651
vt 0.204529 0.877983
vt 0.056085 0.854260
vt 0.149206 0.853003
vt 0.193945 0.977034
vt 0.184449 0.884390
vt 0.162526 0.873527
vt 0.169492 0.865705
vt 0.158261 0.805652
vt 0.230439 0.869933
vt 0.161092 0.833874
vt 0.202079 0.870377
vt 0.174768 0.859781
vt 0.648272 0.258908
vt 0.657637 0.267110
vt 0.677214 0.284194
vt 0.707773 0.311760
vt 0.717000 0.320116
vt 0.688544 0.294284
vt 0.682879 0.289239
vt 0.644167 0.255561
vt 0.720798 0.323807
vt 0.696039 0.285869
vt 0.715268 0.303344
vt 0.684708 0.275778
vt 0.690374 0.280824
vt 0.655766 0.250493
vt 0.665131 0.258694
vt 0.724494 0.311701
vt 0.648803 0.246073
vt 0.729688 0.318108
vt 0.257985 0.766340
vt 0.731707 0.304550
vt 0.744556 0.316132
vt 0.704919 0.280343
vt 0.689173 0.266320
vt 0.697046 0.273332
vt 0.649050 0.231077
vt 0.662037 0.242504
vt 0.643540 0.227770
vt 0.748477 0.321224
vt 0.747047 0.287326
vt 0.759895 0.298908
vt 0.720259 0.263118
vt 0.704513 0.249096
vt 0.712386 0.256107
vt 0.664390 0.213852
vt 0.677377 0.225279
vt 0.643850 0.214429
vt 0.651264 0.218447
vt 0.756846 0.312475
vt 0.761692 0.319377
vt 0.721134 0.230433
vt 0.729007 0.237444
vt 0.757805 0.275245
vt 0.770653 0.286828
vt 0.675148 0.201772
vt 0.688135 0.213199
vt 0.705772 0.235185
vt 0.714670 0.225194
vt 0.736879 0.244455
vt 0.742829 0.250271
vt 0.733931 0.260263
vt 0.762020 0.276359
vt 0.686543 0.209140
vt 0.712687 0.223945
vt 0.744298 0.252097
vt 0.716348 0.220040
vt 0.717792 0.221326
vt 0.724028 0.226879
vt 0.740075 0.241171
vt 0.746311 0.246724
vt 0.747755 0.248010
vt 0.732052 0.234025
vt 0.735619 0.230019
vt 0.743643 0.237165
vt 0.722489 0.218326
vt 0.727595 0.222873
vt 0.748749 0.241712
vt 0.749915 0.242733
vt 0.721340 0.217286
vt 0.822108 0.116748
vt 0.830132 0.123894
vt 0.838156 0.131040
vt 0.843093 0.135776
vt 0.844143 0.136927
vt 0.815569 0.111479
vt 0.816834 0.112389
vt 0.823811 0.113600
vt 0.832449 0.121292
vt 0.841086 0.128984
vt 0.846414 0.134068
vt 0.818147 0.108894
vt 0.848092 0.136063
vt 0.815972 0.107458
vt 0.843503 0.126270
vt 0.848831 0.131353
vt 0.826229 0.110885
vt 0.834866 0.118577
vt 0.820565 0.106180
vt 0.818438 0.104689
vt 0.850558 0.133294
vt 0.844473 0.122325
vt 0.848899 0.126605
vt 0.830035 0.109467
vt 0.837254 0.115896
vt 0.825274 0.105565
vt 0.823006 0.103792
vt 0.850921 0.128653
vt 0.848704 0.117574
vt 0.853130 0.121854
vt 0.834266 0.104716
vt 0.841485 0.111145
vt 0.829504 0.100814
vt 0.826597 0.098837
vt 0.855731 0.124175
vt 0.782677 0.299570
vt 0.780807 0.314188
vt 0.646603 0.194669
vt 0.661104 0.191300
vt 0.783481 0.321352
vt 0.639374 0.193014
vt 0.671438 0.179728
vt 0.678419 0.169809
vt 0.802026 0.279890
vt 0.792978 0.287969
vt 0.648446 0.171792
vt 0.654997 0.173055
vt 0.801308 0.303357
vt 0.803515 0.309892
vt 0.808782 0.310013
vt 0.647523 0.166399
vt 0.629973 0.172084
vt 0.805356 0.328276
vt 0.813924 0.309745
vt 0.647392 0.161434
vt 0.671259 0.164148
vt 0.808475 0.286350
vt 0.694201 0.132360
vt 0.701462 0.138853
vt 0.830117 0.253430
vt 0.837404 0.259893
vt 0.849197 0.270396
vt 0.819775 0.296413
vt 0.659959 0.154085
vt 0.682408 0.121858
vt 0.650273 0.161138
vt 0.813691 0.306674
vt 0.640427 0.126163
vt 0.646734 0.122239
vt 0.637673 0.090280
vt 0.651529 0.118608
vt 0.852738 0.305701
vt 0.849764 0.312594
vt 0.885725 0.311190
vt 0.855987 0.300694
vt 0.663735 0.136746
vt 0.671560 0.112621
vt 0.859624 0.280106
vt 0.836563 0.290662
vt 0.690026 0.103058
vt 0.703583 0.113028
vt 0.855525 0.248344
vt 0.866993 0.260660
vt 0.712613 0.121007
vt 0.679887 0.097352
vt 0.846557 0.240295
vt 0.873830 0.270073
vt 0.701862 0.089767
vt 0.715419 0.099738
vt 0.867361 0.235053
vt 0.878829 0.247369
vt 0.859825 0.229111
vt 0.722191 0.106537
vt 0.692520 0.083167
vt 0.886462 0.255888
vt 0.712229 0.083579
vt 0.722435 0.090565
vt 0.875662 0.227026
vt 0.883780 0.236358
vt 0.729389 0.096540
vt 0.868925 0.220808
vt 0.705972 0.078433
vt 0.889613 0.241979
vt 0.729687 0.068846
vt 0.738883 0.076447
vt 0.887789 0.209059
vt 0.896400 0.217317
vt 0.744256 0.081600
vt 0.882050 0.204317
vt 0.724874 0.063290
vt 0.902474 0.221457
vt 0.737833 0.059699
vt 0.746194 0.068238
vt 0.895100 0.200850
vt 0.904547 0.208170
vt 0.733418 0.054912
vt 0.752375 0.074742
vt 0.887926 0.195460
vt 0.909811 0.212003
vt 0.746240 0.052466
vt 0.754483 0.060901
vt 0.901432 0.191770
vt 0.910762 0.198985
vt 0.737735 0.042768
vt 0.762822 0.069954
vt 0.891476 0.184531
vt 0.921376 0.206314
vt 0.743913 0.034973
vt 0.735605 0.008774
vt 0.928406 0.199278
vt 0.955388 0.204507
vt 0.750260 0.028456
vt 0.934147 0.192222
vt 0.762477 0.050874
vt 0.757585 0.056261
vt 0.905683 0.188154
vt 0.910469 0.182672
vt 0.768926 0.062957
vt 0.897723 0.177660
vt 0.885982 0.159048
vt 0.891508 0.153142
vt 0.788769 0.072472
vt 0.793997 0.066301
vt 0.813400 0.081084
vt 0.818348 0.075137
vt 0.874586 0.135575
vt 0.879923 0.129974
vt 0.860614 0.118735
vt 0.831739 0.093020
vt 0.834692 0.095650
vt 0.857661 0.116106
vt 0.839343 0.099016
vt 0.846562 0.105445
vt 0.853781 0.111874
vt 0.775415 0.054617
vt 0.904852 0.169890
vt 0.863678 0.086225
vt 0.870897 0.092654
vt 0.851808 0.076430
vt 0.856459 0.079796
vt 0.874777 0.096886
vt 0.801342 0.057555
vt 0.826625 0.065468
vt 0.888165 0.120274
vt 0.898942 0.144475
vt 0.847777 0.073792
vt 0.877457 0.100223
vt 0.783448 0.046537
vt 0.809521 0.048258
vt 0.912358 0.161341
vt 0.907641 0.135641
vt 0.836433 0.054579
vt 0.898257 0.109638
vt 0.858824 0.060977
vt 0.889318 0.088134
vt 0.863445 0.063364
vt 0.868096 0.066730
vt 0.875315 0.073159
vt 0.882534 0.079588
vt 0.886414 0.083820
vt 0.859212 0.060951
vt 0.888892 0.087383
vt 0.875789 0.072627
s 0
usemtl Material.001
f 405/1/1 409/2/1 111/3/1 105/4/1
f 404/5/2 104/6/2 110/7/2 408/8/2
f 96/9/3 112/10/3 106/11/3 99/12/3
f 406/13/4 106/11/4 104/6/4 404/5/4
f 403/14/5 406/13/5 100/15/5 3/16/5
f 407/17/6 405/1/6 105/4/6 107/18/6
f 402/19/7 4/20/7 101/21/7 407/17/7
f 410/22/8 409/2/8 109/23/8 255/24/8
f 113/25/9 97/26/9 98/27/9 107/18/9
f 94/28/10 114/29/10 112/10/10 96/9/10
f 115/30/11 95/31/11 97/26/11 113/25/11
f 256/32/8 110/7/8 118/33/8 257/34/8
f 118/33/12 110/7/12 104/6/12 116/35/12
f 104/6/13 106/11/13 112/10/13 116/35/13
f 119/36/14 117/37/14 105/4/14 111/3/14
f 105/4/15 117/37/15 113/25/15 107/18/15
f 119/36/14 123/38/14 121/39/14 117/37/14
f 118/33/12 116/35/12 120/40/12 122/41/12
f 257/34/8 118/33/8 122/41/8 258/42/8
f 114/29/16 120/40/16 116/35/16 112/10/16
f 115/30/17 113/25/17 117/37/17 121/39/17
f 124/43/18 5/44/18 3/16/18 100/15/18
f 6/45/19 125/46/19 101/21/19 4/20/19
f 102/47/20 126/48/20 124/43/20 100/15/20
f 103/49/21 101/21/21 125/46/21 127/50/21
f 255/24/22 109/23/22 129/51/22 259/52/22
f 108/53/23 128/54/23 126/48/23 102/47/23
f 109/23/24 103/49/24 127/50/24 129/51/24
f 124/43/25 130/55/25 5/44/25
f 125/46/26 6/45/26 131/56/26
f 83/57/27 131/56/27 6/45/27
f 5/44/28 130/55/28 82/58/28
f 82/58/29 132/59/29 76/60/29
f 133/61/30 83/57/30 77/62/30
f 125/46/31 135/63/31 137/64/31 127/50/31
f 124/43/32 126/48/32 136/65/32 134/66/32
f 124/43/33 134/66/33 130/55/33
f 125/46/34 131/56/34 135/63/34
f 259/52/35 129/51/35 139/67/35 260/68/35
f 128/54/36 138/69/36 136/65/36 126/48/36
f 129/51/37 127/50/37 137/64/37 139/67/37
f 130/55/38 132/59/38 82/58/38
f 83/57/39 133/61/39 131/56/39
f 134/66/40 140/70/40 132/59/40 130/55/40
f 135/63/41 131/56/41 133/61/41 141/71/41
f 132/59/42 140/70/42 76/60/42
f 133/61/43 77/62/43 141/71/43
f 75/72/44 151/73/44 85/74/44
f 84/75/45 150/76/45 74/77/45
f 76/60/46 148/78/46 84/75/46
f 148/78/47 150/76/47 84/75/47
f 85/74/48 149/79/48 77/62/48
f 149/79/49 85/74/49 151/73/49
f 141/71/50 77/62/50 149/79/50
f 140/70/51 148/78/51 76/60/51
f 121/39/52 155/80/52 153/81/52 115/30/52
f 123/38/53 157/82/53 155/80/53 121/39/53
f 258/42/54 122/41/54 156/83/54 261/84/54
f 120/40/55 114/29/55 152/85/55 154/86/55
f 122/41/56 120/40/56 154/86/56 156/83/56
f 154/86/57 152/85/57 158/87/57 160/88/57
f 156/83/58 154/86/58 160/88/58 162/89/58
f 155/80/59 161/90/59 159/91/59 153/81/59
f 157/82/60 163/92/60 161/90/60 155/80/60
f 261/84/61 156/83/61 162/89/61 262/93/61
f 33/94/62 158/87/62 152/85/62 35/95/62
f 35/95/63 152/85/63 114/29/63 94/28/63
f 36/96/64 95/31/64 115/30/64 153/81/64
f 34/97/65 36/96/65 153/81/65 159/91/65
f 74/77/66 164/98/66 86/99/66
f 74/77/67 150/76/67 164/98/67
f 151/73/68 75/72/68 165/100/68
f 87/101/69 165/100/69 75/72/69
f 166/102/70 78/103/70 86/99/70
f 167/104/71 87/101/71 79/105/71
f 87/101/72 167/104/72 165/100/72
f 86/99/73 164/98/73 166/102/73
f 142/106/74 166/102/74 164/98/74 146/107/74
f 143/108/75 147/109/75 165/100/75 167/104/75
f 165/100/76 147/109/76 151/73/76
f 164/98/77 150/76/77 146/107/77
f 148/78/78 140/70/78 168/110/78
f 149/79/79 169/111/79 141/71/79
f 147/109/80 169/111/80 149/79/80 151/73/80
f 146/107/81 150/76/81 148/78/81 168/110/81
f 168/110/82 140/70/82 170/112/82
f 169/111/83 171/113/83 141/71/83
f 136/65/84 170/112/84 140/70/84 134/66/84
f 137/64/85 135/63/85 141/71/85 171/113/85
f 146/107/86 168/110/86 170/112/86 172/114/86
f 147/109/87 173/115/87 171/113/87 169/111/87
f 142/106/88 146/107/88 172/114/88 174/116/88
f 143/108/89 175/117/89 173/115/89 147/109/89
f 167/104/90 79/105/90 180/118/90
f 166/102/91 179/119/91 78/103/91
f 160/88/92 158/87/92 189/120/92 191/121/92
f 162/89/93 160/88/93 191/121/93 193/122/93
f 161/90/94 192/123/94 190/124/94 159/91/94
f 163/92/95 194/125/95 192/123/95 161/90/95
f 262/93/8 162/89/8 193/122/8 263/126/8
f 158/87/96 33/94/96 181/127/96 189/120/96
f 182/128/97 34/97/97 159/91/97 190/124/97
f 166/102/98 142/106/98 179/119/98
f 167/104/99 180/118/99 143/108/99
f 179/119/100 195/129/100 78/103/100
f 180/118/101 79/105/101 196/130/101
f 78/103/102 195/129/102 88/131/102
f 89/132/103 196/130/103 79/105/103
f 88/131/104 195/129/104 71/133/104
f 72/134/105 196/130/105 89/132/105
f 144/135/106 197/136/106 179/119/106 142/106/106
f 145/137/107 143/108/107 180/118/107 198/138/107
f 195/129/108 197/136/108 71/133/108
f 195/129/8 179/119/8 197/136/8
f 196/130/109 72/134/109 198/138/109
f 196/130/8 198/138/8 180/118/8
f 199/139/110 90/140/110 71/133/110
f 71/133/111 197/136/111 199/139/111
f 200/141/112 72/134/112 91/142/112
f 72/134/113 200/141/113 198/138/113
f 90/140/114 199/139/114 80/143/114
f 91/142/115 81/144/115 200/141/115
f 144/135/116 176/145/116 201/146/116
f 144/135/117 201/146/117 199/139/117 197/136/117
f 202/147/118 145/137/118 198/138/118 200/141/118
f 177/148/119 145/137/119 202/147/119
f 92/149/120 80/143/120 203/150/120
f 81/144/121 93/151/121 204/152/121
f 93/151/122 73/153/122 204/152/122
f 73/153/123 92/149/123 203/150/123
f 203/150/124 178/154/124 73/153/124
f 204/152/125 73/153/125 178/154/125
f 178/154/126 177/148/126 204/152/126
f 178/154/127 203/150/127 176/145/127
f 203/150/128 80/143/128 176/145/128
f 199/139/129 201/146/129 80/143/129
f 176/145/130 80/143/130 201/146/130
f 200/141/131 81/144/131 202/147/131
f 202/147/132 81/144/132 177/148/132
f 81/144/133 204/152/133 177/148/133
f 144/135/134 142/106/134 174/116/134 205/155/134
f 145/137/135 206/156/135 175/117/135 143/108/135
f 176/145/136 144/135/136 205/155/136 207/157/136
f 177/148/137 208/158/137 206/156/137 145/137/137
f 178/154/138 176/145/138 207/157/138 209/159/138
f 177/148/139 178/154/139 209/159/139 208/158/139
f 191/121/140 189/120/140 210/160/140 212/161/140
f 193/122/141 191/121/141 212/161/141 214/162/141
f 192/123/142 213/163/142 211/164/142 190/124/142
f 194/125/143 215/165/143 213/163/143 192/123/143
f 263/126/144 193/122/144 214/162/144 264/166/144
f 187/167/145 210/160/145 189/120/145 181/127/145
f 188/168/146 182/128/146 190/124/146 211/164/146
f 215/165/147 221/169/147 219/170/147 213/163/147
f 264/166/8 214/162/8 220/171/8 265/172/8
f 212/161/148 210/160/148 216/173/148 218/174/148
f 214/162/149 212/161/149 218/174/149 220/171/149
f 213/163/150 219/170/150 217/175/150 211/164/150
f 183/176/151 216/173/151 210/160/151 187/167/151
f 184/177/152 188/168/152 211/164/152 217/175/152
f 209/159/153 207/157/153 222/178/153
f 208/158/153 209/159/153 222/178/153
f 208/158/154 222/178/154 206/156/154
f 207/157/155 205/155/155 222/178/155
f 205/155/156 174/116/156 222/178/156
f 206/156/157 222/178/157 175/117/157
f 174/116/158 172/114/158 222/178/158
f 175/117/159 222/178/159 173/115/159
f 172/114/160 170/112/160 222/178/160
f 173/115/160 222/178/160 171/113/160
f 171/113/161 222/178/161 137/64/161
f 170/112/162 136/65/162 222/178/162
f 138/69/163 222/178/163 136/65/163
f 139/67/164 137/64/164 222/178/164
f 139/67/165 222/178/165 138/69/165 260/68/165
f 219/170/166 226/179/166 224/180/166 217/175/166
f 221/169/167 228/181/167 226/179/167 219/170/167
f 265/172/168 220/171/168 227/182/168 266/183/168
f 218/174/169 216/173/169 223/184/169 225/185/169
f 220/171/170 218/174/170 225/185/170 227/182/170
f 185/186/171 223/184/171 216/173/171 183/176/171
f 186/187/172 184/177/172 217/175/172 224/180/172
f 226/179/173 232/188/173 230/189/173 224/180/173
f 228/181/174 234/190/174 232/188/174 226/179/174
f 266/183/8 227/182/8 233/191/8 267/192/8
f 225/185/175 223/184/175 229/193/175 231/194/175
f 227/182/176 225/185/176 231/194/176 233/191/176
f 1/195/177 235/196/177 223/184/177 185/186/177
f 236/197/178 2/198/178 186/187/178 224/180/178
f 229/193/8 223/184/8 235/196/8
f 230/189/8 236/197/8 224/180/8
f 267/192/8 233/191/8 241/199/8 268/200/8
f 232/188/173 248/201/173 246/202/173 230/189/173
f 231/194/175 229/193/175 245/203/175 247/204/175
f 249/205/179 243/206/179 241/199/179 233/191/179
f 234/190/180 242/207/180 244/208/180 250/209/180
f 248/201/181 250/209/181 52/210/181
f 247/204/182 51/211/182 249/205/182
f 49/212/183 243/206/183 51/211/183
f 52/210/184 244/208/184 50/213/184
f 244/208/185 52/210/185 250/209/185
f 243/206/186 249/205/186 51/211/186
f 234/190/187 250/209/187 232/188/187
f 233/191/188 231/194/188 249/205/188
f 231/194/189 247/204/189 249/205/189
f 232/188/190 250/209/190 248/201/190
f 247/204/191 245/203/191 51/211/191
f 248/201/192 52/210/192 246/202/192
f 237/214/193 254/215/193 243/206/193 49/212/193
f 241/199/194 243/206/194 254/215/194 251/216/194
f 242/207/195 252/217/195 253/218/195 244/208/195
f 238/219/196 50/213/196 244/208/196 253/218/196
f 234/190/8 267/192/8 268/200/8 242/207/8
f 228/181/8 266/183/8 267/192/8 234/190/8
f 221/169/168 265/172/168 266/183/168 228/181/168
f 215/165/8 264/166/8 265/172/8 221/169/8
f 194/125/144 263/126/144 264/166/144 215/165/144
f 163/92/8 262/93/8 263/126/8 194/125/8
f 157/82/61 261/84/61 262/93/61 163/92/61
f 123/38/54 258/42/54 261/84/54 157/82/54
f 128/54/35 259/52/35 260/68/35 138/69/35
f 108/53/22 255/24/22 259/52/22 128/54/22
f 119/36/8 257/34/8 258/42/8 123/38/8
f 111/3/8 256/32/8 257/34/8 119/36/8
f 408/8/8 410/22/8 255/24/8 108/53/8
f 251/216/197 269/220/197 268/200/197 241/199/197
f 242/207/198 268/200/198 269/220/198 252/217/198
f 252/217/199 269/220/199 274/221/199 271/222/199
f 254/215/200 273/223/200 270/224/200 251/216/200
f 251/216/201 270/224/201 274/221/201 269/220/201
f 253/218/202 252/217/202 271/222/202 272/225/202
f 238/219/203 253/218/203 272/225/203 240/226/203
f 237/214/204 239/227/204 273/223/204 254/215/204
f 270/224/205 275/228/205 277/229/205 274/221/205
f 271/222/206 274/221/206 277/229/206 276/230/206
f 278/231/207 48/232/207 240/226/207 272/225/207
f 47/233/208 279/234/208 273/223/208 239/227/208
f 273/223/209 279/234/209 275/228/209 270/224/209
f 272/225/210 271/222/210 276/230/210 278/231/210
f 275/228/211 280/235/211 282/236/211 277/229/211
f 278/231/212 276/230/212 281/237/212 283/238/212
f 276/230/213 277/229/213 282/236/213 281/237/213
f 279/234/214 284/239/214 280/235/214 275/228/214
f 48/232/215 278/231/215 283/238/215 64/240/215
f 47/233/216 63/241/216 284/239/216 279/234/216
f 283/238/217 281/237/217 286/242/217 288/243/217
f 280/235/218 285/244/218 287/245/218 282/236/218
f 284/239/219 289/246/219 285/244/219 280/235/219
f 281/237/220 282/236/220 287/245/220 286/242/220
f 63/241/221 65/247/221 289/246/221 284/239/221
f 64/240/222 283/238/222 288/243/222 66/248/222
f 288/243/223 286/242/223 291/249/223 293/250/223
f 285/244/224 290/251/224 292/252/224 287/245/224
f 289/246/225 294/253/225 290/251/225 285/244/225
f 286/242/226 287/245/226 292/252/226 291/249/226
f 65/247/227 67/254/227 294/253/227 289/246/227
f 66/248/228 288/243/228 293/250/228 68/255/228
f 293/250/229 291/249/229 296/256/229 298/257/229
f 290/251/230 295/258/230 297/259/230 292/252/230
f 294/253/231 299/260/231 295/258/231 290/251/231
f 291/249/232 292/252/232 297/259/232 296/256/232
f 67/254/233 69/261/233 299/260/233 294/253/233
f 68/255/234 293/250/234 298/257/234 70/262/234
f 230/189/8 301/263/8 303/264/8 236/197/8
f 229/193/8 235/196/8 302/265/8 300/266/8
f 8/267/235 2/198/235 236/197/235 303/264/235
f 7/268/236 302/265/236 235/196/236 1/195/236
f 229/193/8 300/266/8 245/203/8
f 230/189/8 246/202/8 301/263/8
f 304/269/237 53/270/237 51/211/237 245/203/237
f 54/271/238 305/272/238 246/202/238 52/210/238
f 300/266/8 304/269/8 245/203/8
f 301/263/8 246/202/8 305/272/8
f 9/273/239 306/274/239 302/265/239 7/268/239
f 307/275/240 10/276/240 8/267/240 303/264/240
f 302/265/8 306/274/8 304/269/8 300/266/8
f 303/264/8 301/263/8 305/272/8 307/275/8
f 307/275/241 309/277/241 10/276/241
f 306/274/242 9/273/242 308/278/242
f 11/279/243 308/278/243 9/273/243
f 10/276/244 309/277/244 12/280/244
f 12/280/245 309/277/245 14/281/245
f 13/282/246 308/278/246 11/279/246
f 304/269/247 310/283/247 53/270/247
f 305/272/248 54/271/248 311/284/248
f 312/285/249 55/286/249 53/270/249 310/283/249
f 56/287/250 313/288/250 311/284/250 54/271/250
f 306/274/8 310/283/8 304/269/8
f 307/275/8 305/272/8 311/284/8
f 313/288/8 317/289/8 315/290/8 311/284/8
f 312/285/8 310/283/8 314/291/8 316/292/8
f 310/283/8 306/274/8 314/291/8
f 311/284/8 315/290/8 307/275/8
f 309/277/251 307/275/251 315/290/251
f 308/278/252 314/291/252 306/274/252
f 308/278/253 13/282/253 318/293/253
f 309/277/254 319/294/254 14/281/254
f 314/291/255 308/278/255 318/293/255
f 315/290/256 319/294/256 309/277/256
f 15/295/257 320/296/257 318/293/257 13/282/257
f 17/297/258 320/296/258 15/295/258
f 19/298/259 320/296/259 17/297/259
f 321/299/260 16/300/260 14/281/260 319/294/260
f 16/300/261 321/299/261 18/301/261
f 18/301/262 321/299/262 20/302/262
f 316/292/263 314/291/263 21/303/263 322/304/263
f 323/305/264 22/306/264 315/290/264 317/289/264
f 21/303/265 314/291/265 320/296/265 19/298/265
f 22/306/266 20/302/266 321/299/266 315/290/266
f 315/290/267 321/299/267 319/294/267
f 314/291/268 318/293/268 320/296/268
f 312/285/8 316/292/8 328/307/8 326/308/8
f 313/288/8 327/309/8 329/310/8 317/289/8
f 55/286/269 312/285/269 326/308/269 324/311/269
f 23/312/270 328/307/270 316/292/270 322/304/270
f 313/288/271 56/287/271 325/313/271 327/309/271
f 24/314/272 323/305/272 317/289/272 329/310/272
f 326/308/273 328/307/273 332/315/273 330/316/273
f 327/309/274 331/317/274 333/318/274 329/310/274
f 325/313/275 335/319/275 331/317/275 327/309/275
f 324/311/276 326/308/276 330/316/276 334/320/276
f 25/321/277 332/315/277 328/307/277 23/312/277
f 26/322/278 24/314/278 329/310/278 333/318/278
f 330/316/8 332/315/8 338/323/8 336/324/8
f 331/317/8 337/325/8 339/326/8 333/318/8
f 334/320/279 330/316/279 336/324/279 340/327/279
f 335/319/280 341/328/280 337/325/280 331/317/280
f 27/329/281 338/323/281 332/315/281 25/321/281
f 28/330/282 26/322/282 333/318/282 339/326/282
f 336/324/8 338/323/8 346/331/8 344/332/8
f 337/325/8 345/333/8 347/334/8 339/326/8
f 340/327/283 336/324/283 344/332/283 342/335/283
f 337/325/284 341/328/284 343/336/284 345/333/284
f 31/337/285 346/331/285 338/323/285 27/329/285
f 32/338/286 28/330/286 339/326/286 347/334/286
f 344/332/8 346/331/8 354/339/8 352/340/8
f 345/333/8 353/341/8 355/342/8 347/334/8
f 346/331/287 31/337/287 348/343/287 354/339/287
f 342/335/288 344/332/288 352/340/288 350/344/288
f 345/333/289 343/336/289 351/345/289 353/341/289
f 349/346/290 32/338/290 347/334/290 355/342/290
f 352/340/8 354/339/8 358/347/8 356/348/8
f 353/341/8 357/349/8 359/350/8 355/342/8
f 29/351/291 358/347/291 354/339/291 348/343/291
f 350/344/292 352/340/292 356/348/292 57/352/292
f 351/345/293 58/353/293 357/349/293 353/341/293
f 30/354/294 349/346/294 355/342/294 359/350/294
f 358/347/295 29/351/295 360/355/295
f 37/356/296 360/355/296 29/351/296
f 359/350/297 361/357/297 30/354/297
f 30/354/298 361/357/298 38/358/298
f 360/355/299 37/356/299 363/359/299
f 38/358/300 361/357/300 362/360/300
f 39/361/301 364/362/301 360/355/301 363/359/301
f 365/363/302 40/364/302 362/360/302 361/357/302
f 361/357/8 359/350/8 365/363/8
f 360/355/8 364/362/8 358/347/8
f 356/348/8 358/347/8 364/362/8
f 357/349/8 365/363/8 359/350/8
f 356/348/303 366/365/303 57/352/303
f 357/349/304 58/353/304 367/366/304
f 60/367/305 369/368/305 367/366/305 58/353/305
f 59/369/306 57/352/306 366/365/306 368/370/306
f 61/371/307 59/369/307 368/370/307 370/372/307
f 62/373/308 371/374/308 369/368/308 60/367/308
f 70/262/309 373/375/309 371/374/309 62/373/309
f 69/261/310 61/371/310 370/372/310 372/376/310
f 299/260/311 69/261/311 372/376/311
f 298/257/312 373/375/312 70/262/312
f 372/376/313 374/377/313 299/260/313
f 373/375/314 298/257/314 375/378/314
f 295/258/315 376/379/315 378/380/315 297/259/315
f 296/256/316 297/259/316 378/380/316 377/381/316
f 295/258/317 299/260/317 374/377/317 376/379/317
f 296/256/318 377/381/318 375/378/318 298/257/318
f 364/362/8 379/382/8 366/365/8 356/348/8
f 365/363/8 357/349/8 367/366/8 380/383/8
f 377/381/232 378/380/232 393/384/232 392/385/232
f 374/377/319 389/386/319 391/387/319 376/379/319
f 376/379/230 391/387/230 393/384/230 378/380/230
f 375/378/320 377/381/320 392/385/320 390/388/320
f 370/372/8 368/370/8 381/389/8 383/390/8
f 368/370/8 366/365/8 379/382/8 381/389/8
f 371/374/8 384/391/8 382/392/8 369/368/8
f 369/368/8 382/392/8 380/383/8 367/366/8
f 372/376/8 370/372/8 383/390/8 387/393/8
f 373/375/8 388/394/8 384/391/8 371/374/8
f 372/376/321 387/393/321 389/386/321 374/377/321
f 373/375/322 375/378/322 390/388/322 388/394/322
f 41/395/323 379/382/323 364/362/323 39/361/323
f 381/389/324 379/382/324 41/395/324 385/396/324
f 42/397/325 40/364/325 365/363/325 380/383/325
f 386/398/326 42/397/326 380/383/326 382/392/326
f 43/399/327 383/390/327 381/389/327 385/396/327
f 382/392/328 384/391/328 44/400/328 386/398/328
f 45/401/329 387/393/329 383/390/329 43/399/329
f 46/402/330 44/400/330 384/391/330 388/394/330
f 389/386/319 394/403/319 396/404/319 391/387/319
f 392/385/232 393/384/232 398/405/232 397/406/232
f 390/388/320 392/385/320 397/406/320 395/407/320
f 391/387/230 396/404/230 398/405/230 393/384/230
f 387/393/331 399/408/331 394/403/331 389/386/331
f 388/394/332 390/388/332 395/407/332 400/409/332
f 387/393/333 45/401/333 399/408/333
f 388/394/334 400/409/334 46/402/334
f 45/401/335 401/410/335 399/408/335
f 398/405/336 396/404/336 401/410/336
f 396/404/337 394/403/337 401/410/337
f 394/403/338 399/408/338 401/410/338
f 46/402/339 400/409/339 401/410/339
f 400/409/340 395/407/340 401/410/340
f 397/406/341 401/410/341 395/407/341
f 397/406/342 398/405/342 401/410/342
f 110/7/8 256/32/8 410/22/8 408/8/8
f 256/32/8 111/3/8 409/2/8 410/22/8
f 98/27/343 402/19/343 407/17/343 107/18/343
f 101/21/344 103/49/344 405/1/344 407/17/344
f 99/12/345 106/11/345 406/13/345 403/14/345
f 100/15/346 406/13/346 404/5/346 102/47/346
f 102/47/347 404/5/347 408/8/347 108/53/347
f 103/49/348 109/23/348 409/2/348 405/1/348
f 683/1/349 416/4/349 422/3/349 687/2/349
f 682/5/350 686/8/350 421/7/350 415/6/350
f 96/9/351 99/12/351 417/11/351 423/10/351
f 684/13/352 682/5/352 415/6/352 417/11/352
f 403/14/353 3/16/353 411/15/353 684/13/353
f 685/17/354 418/18/354 416/4/354 683/1/354
f 402/19/355 685/17/355 412/21/355 4/20/355
f 688/22/356 554/24/356 420/23/356 687/2/356
f 424/25/357 418/18/357 98/27/357 97/26/357
f 94/28/358 96/9/358 423/10/358 425/29/358
f 426/30/359 424/25/359 97/26/359 95/31/359
f 555/32/356 556/34/356 429/33/356 421/7/356
f 429/33/360 427/35/360 415/6/360 421/7/360
f 415/6/361 427/35/361 423/10/361 417/11/361
f 430/36/362 422/3/362 416/4/362 428/37/362
f 416/4/363 418/18/363 424/25/363 428/37/363
f 430/36/362 428/37/362 432/39/362 434/38/362
f 429/33/360 433/41/360 431/40/360 427/35/360
f 556/34/356 557/42/356 433/41/356 429/33/356
f 425/29/364 423/10/364 427/35/364 431/40/364
f 426/30/365 432/39/365 428/37/365 424/25/365
f 435/43/366 411/15/366 3/16/366 5/44/366
f 6/45/367 4/20/367 412/21/367 436/46/367
f 413/47/368 411/15/368 435/43/368 437/48/368
f 414/49/369 438/50/369 436/46/369 412/21/369
f 554/24/370 558/52/370 440/51/370 420/23/370
f 419/53/371 413/47/371 437/48/371 439/54/371
f 420/23/372 440/51/372 438/50/372 414/49/372
f 435/43/373 5/44/373 441/55/373
f 436/46/374 442/56/374 6/45/374
f 83/57/375 6/45/375 442/56/375
f 5/44/376 82/58/376 441/55/376
f 82/58/377 76/60/377 443/59/377
f 444/61/378 77/62/378 83/57/378
f 436/46/379 438/50/379 448/64/379 446/63/379
f 435/43/380 445/66/380 447/65/380 437/48/380
f 435/43/381 441/55/381 445/66/381
f 436/46/382 446/63/382 442/56/382
f 558/52/383 559/68/383 450/67/383 440/51/383
f 439/54/384 437/48/384 447/65/384 449/69/384
f 440/51/385 450/67/385 448/64/385 438/50/385
f 441/55/386 82/58/386 443/59/386
f 83/57/387 442/56/387 444/61/387
f 445/66/388 441/55/388 443/59/388 451/70/388
f 446/63/389 452/71/389 444/61/389 442/56/389
f 443/59/390 76/60/390 451/70/390
f 444/61/391 452/71/391 77/62/391
f 75/72/392 85/74/392 462/73/392
f 84/75/393 74/77/393 461/76/393
f 76/60/394 84/75/394 459/78/394
f 459/78/395 84/75/395 461/76/395
f 85/74/396 77/62/396 460/79/396
f 460/79/397 462/73/397 85/74/397
f 452/71/398 460/79/398 77/62/398
f 451/70/399 76/60/399 459/78/399
f 432/39/400 426/30/400 464/81/400 466/80/400
f 434/38/401 432/39/401 466/80/401 468/82/401
f 557/42/402 560/84/402 467/83/402 433/41/402
f 431/40/403 465/86/403 463/85/403 425/29/403
f 433/41/404 467/83/404 465/86/404 431/40/404
f 465/86/405 471/88/405 469/87/405 463/85/405
f 467/83/406 473/89/406 471/88/406 465/86/406
f 466/80/407 464/81/407 470/91/407 472/90/407
f 468/82/408 466/80/408 472/90/408 474/92/408
f 560/84/409 561/93/409 473/89/409 467/83/409
f 33/94/410 35/95/410 463/85/410 469/87/410
f 35/95/411 94/28/411 425/29/411 463/85/411
f 36/96/412 464/81/412 426/30/412 95/31/412
f 34/97/413 470/91/413 464/81/413 36/96/413
f 74/77/414 86/99/414 475/98/414
f 74/77/415 475/98/415 461/76/415
f 462/73/416 476/100/416 75/72/416
f 87/101/417 75/72/417 476/100/417
f 477/102/418 86/99/418 78/103/418
f 478/104/419 79/105/419 87/101/419
f 87/101/420 476/100/420 478/104/420
f 86/99/421 477/102/421 475/98/421
f 453/106/422 457/107/422 475/98/422 477/102/422
f 454/108/423 478/104/423 476/100/423 458/109/423
f 476/100/424 462/73/424 458/109/424
f 475/98/425 457/107/425 461/76/425
f 459/78/426 479/110/426 451/70/426
f 460/79/427 452/71/427 480/111/427
f 458/109/428 462/73/428 460/79/428 480/111/428
f 457/107/429 479/110/429 459/78/429 461/76/429
f 479/110/430 481/112/430 451/70/430
f 480/111/431 452/71/431 482/113/431
f 447/65/432 445/66/432 451/70/432 481/112/432
f 448/64/433 482/113/433 452/71/433 446/63/433
f 457/107/434 483/114/434 481/112/434 479/110/434
f 458/109/435 480/111/435 482/113/435 484/115/435
f 453/106/436 485/116/436 483/114/436 457/107/436
f 454/108/437 458/109/437 484/115/437 486/117/437
f 478/104/438 491/118/438 79/105/438
f 477/102/439 78/103/439 490/119/439
f 471/88/440 494/121/440 492/120/440 469/87/440
f 473/89/441 496/122/441 494/121/441 471/88/441
f 472/90/442 470/91/442 493/124/442 495/123/442
f 474/92/443 472/90/443 495/123/443 497/125/443
f 561/93/356 562/126/356 496/122/356 473/89/356
f 469/87/444 492/120/444 181/127/444 33/94/444
f 182/128/445 493/124/445 470/91/445 34/97/445
f 477/102/446 490/119/446 453/106/446
f 478/104/447 454/108/447 491/118/447
f 490/119/448 78/103/448 498/129/448
f 491/118/449 499/130/449 79/105/449
f 78/103/450 88/131/450 498/129/450
f 89/132/451 79/105/451 499/130/451
f 88/131/452 71/133/452 498/129/452
f 72/134/453 89/132/453 499/130/453
f 455/135/454 453/106/454 490/119/454 500/136/454
f 456/137/455 501/138/455 491/118/455 454/108/455
f 498/129/456 71/133/456 500/136/456
f 498/129/356 500/136/356 490/119/356
f 499/130/457 501/138/457 72/134/457
f 499/130/356 491/118/356 501/138/356
f 502/139/458 71/133/458 90/140/458
f 71/133/459 502/139/459 500/136/459
f 503/141/460 91/142/460 72/134/460
f 72/134/461 501/138/461 503/141/461
f 90/140/462 80/143/462 502/139/462
f 91/142/463 503/141/463 81/144/463
f 455/135/464 504/146/464 487/145/464
f 455/135/465 500/136/465 502/139/465 504/146/465
f 505/147/466 503/141/466 501/138/466 456/137/466
f 488/148/467 505/147/467 456/137/467
f 92/149/468 506/150/468 80/143/468
f 81/144/469 507/152/469 93/151/469
f 93/151/470 507/152/470 73/153/470
f 73/153/471 506/150/471 92/149/471
f 506/150/472 73/153/472 489/154/472
f 507/152/473 489/154/473 73/153/473
f 489/154/474 507/152/474 488/148/474
f 489/154/475 487/145/475 506/150/475
f 506/150/476 487/145/476 80/143/476
f 502/139/477 80/143/477 504/146/477
f 487/145/478 504/146/478 80/143/478
f 503/141/479 505/147/479 81/144/479
f 505/147/480 488/148/480 81/144/480
f 81/144/481 488/148/481 507/152/481
f 455/135/482 508/155/482 485/116/482 453/106/482
f 456/137/483 454/108/483 486/117/483 509/156/483
f 487/145/484 510/157/484 508/155/484 455/135/484
f 488/148/485 456/137/485 509/156/485 511/158/485
f 489/154/486 512/159/486 510/157/486 487/145/486
f 488/148/487 511/158/487 512/159/487 489/154/487
f 494/121/488 515/161/488 513/160/488 492/120/488
f 496/122/489 517/162/489 515/161/489 494/121/489
f 495/123/490 493/124/490 514/164/490 516/163/490
f 497/125/491 495/123/491 516/163/491 518/165/491
f 562/126/492 563/166/492 517/162/492 496/122/492
f 187/167/493 181/127/493 492/120/493 513/160/493
f 188/168/494 514/164/494 493/124/494 182/128/494
f 518/165/495 516/163/495 522/170/495 524/169/495
f 563/166/356 564/172/356 523/171/356 517/162/356
f 515/161/496 521/174/496 519/173/496 513/160/496
f 517/162/497 523/171/497 521/174/497 515/161/497
f 516/163/498 514/164/498 520/175/498 522/170/498
f 183/176/499 187/167/499 513/160/499 519/173/499
f 184/177/500 520/175/500 514/164/500 188/168/500
f 512/159/501 525/178/501 510/157/501
f 511/158/501 525/178/501 512/159/501
f 511/158/502 509/156/502 525/178/502
f 510/157/503 525/178/503 508/155/503
f 508/155/504 525/178/504 485/116/504
f 509/156/505 486/117/505 525/178/505
f 485/116/506 525/178/506 483/114/506
f 486/117/507 484/115/507 525/178/507
f 483/114/508 525/178/508 481/112/508
f 484/115/508 482/113/508 525/178/508
f 482/113/509 448/64/509 525/178/509
f 481/112/510 525/178/510 447/65/510
f 449/69/511 447/65/511 525/178/511
f 450/67/512 525/178/512 448/64/512
f 450/67/513 559/68/513 449/69/513 525/178/513
f 522/170/514 520/175/514 527/180/514 529/179/514
f 524/169/515 522/170/515 529/179/515 531/181/515
f 564/172/516 565/183/516 530/182/516 523/171/516
f 521/174/517 528/185/517 526/184/517 519/173/517
f 523/171/518 530/182/518 528/185/518 521/174/518
f 185/186/519 183/176/519 519/173/519 526/184/519
f 186/187/520 527/180/520 520/175/520 184/177/520
f 529/179/521 527/180/521 533/189/521 535/188/521
f 531/181/522 529/179/522 535/188/522 537/190/522
f 565/183/356 566/192/356 536/191/356 530/182/356
f 528/185/523 534/194/523 532/193/523 526/184/523
f 530/182/524 536/191/524 534/194/524 528/185/524
f 1/195/525 185/186/525 526/184/525 538/196/525
f 539/197/526 527/180/526 186/187/526 2/198/526
f 532/193/356 538/196/356 526/184/356
f 533/189/356 527/180/356 539/197/356
f 566/192/356 567/200/356 540/199/356 536/191/356
f 535/188/521 533/189/521 545/202/521 547/201/521
f 534/194/523 546/204/523 544/203/523 532/193/523
f 548/205/527 536/191/527 540/199/527 542/206/527
f 537/190/528 549/209/528 543/208/528 541/207/528
f 547/201/529 52/210/529 549/209/529
f 546/204/530 548/205/530 51/211/530
f 49/212/531 51/211/531 542/206/531
f 52/210/532 50/213/532 543/208/532
f 543/208/533 549/209/533 52/210/533
f 542/206/534 51/211/534 548/205/534
f 537/190/535 535/188/535 549/209/535
f 536/191/536 548/205/536 534/194/536
f 534/194/537 548/205/537 546/204/537
f 535/188/538 547/201/538 549/209/538
f 546/204/539 51/211/539 544/203/539
f 547/201/540 545/202/540 52/210/540
f 237/214/541 49/212/541 542/206/541 553/215/541
f 540/199/542 550/216/542 553/215/542 542/206/542
f 541/207/543 543/208/543 552/218/543 551/217/543
f 238/219/544 552/218/544 543/208/544 50/213/544
f 537/190/356 541/207/356 567/200/356 566/192/356
f 531/181/356 537/190/356 566/192/356 565/183/356
f 524/169/516 531/181/516 565/183/516 564/172/516
f 518/165/356 524/169/356 564/172/356 563/166/356
f 497/125/492 518/165/492 563/166/492 562/126/492
f 474/92/356 497/125/356 562/126/356 561/93/356
f 468/82/409 474/92/409 561/93/409 560/84/409
f 434/38/402 468/82/402 560/84/402 557/42/402
f 439/54/383 449/69/383 559/68/383 558/52/383
f 419/53/370 439/54/370 558/52/370 554/24/370
f 430/36/356 434/38/356 557/42/356 556/34/356
f 422/3/356 430/36/356 556/34/356 555/32/356
f 686/8/356 419/53/356 554/24/356 688/22/356
f 550/216/545 540/199/545 567/200/545 568/220/545
f 541/207/546 551/217/546 568/220/546 567/200/546
f 551/217/547 570/222/547 573/221/547 568/220/547
f 553/215/548 550/216/548 569/224/548 572/223/548
f 550/216/549 568/220/549 573/221/549 569/224/549
f 552/218/550 571/225/550 570/222/550 551/217/550
f 238/219/551 240/226/551 571/225/551 552/218/551
f 237/214/552 553/215/552 572/223/552 239/227/552
f 569/224/553 573/221/553 576/229/553 574/228/553
f 570/222/554 575/230/554 576/229/554 573/221/554
f 577/231/555 571/225/555 240/226/555 48/232/555
f 47/233/556 239/227/556 572/223/556 578/234/556
f 572/223/557 569/224/557 574/228/557 578/234/557
f 571/225/558 577/231/558 575/230/558 570/222/558
f 574/228/559 576/229/559 581/236/559 579/235/559
f 577/231/560 582/238/560 580/237/560 575/230/560
f 575/230/561 580/237/561 581/236/561 576/229/561
f 578/234/562 574/228/562 579/235/562 583/239/562
f 48/232/563 64/240/563 582/238/563 577/231/563
f 47/233/564 578/234/564 583/239/564 63/241/564
f 582/238/565 587/243/565 585/242/565 580/237/565
f 579/235/566 581/236/566 586/245/566 584/244/566
f 583/239/567 579/235/567 584/244/567 588/246/567
f 580/237/568 585/242/568 586/245/568 581/236/568
f 63/241/569 583/239/569 588/246/569 65/247/569
f 64/240/570 66/248/570 587/243/570 582/238/570
f 587/243/571 592/250/571 590/249/571 585/242/571
f 584/244/572 586/245/572 591/252/572 589/251/572
f 588/246/573 584/244/573 589/251/573 593/253/573
f 585/242/574 590/249/574 591/252/574 586/245/574
f 65/247/575 588/246/575 593/253/575 67/254/575
f 66/248/576 68/255/576 592/250/576 587/243/576
f 592/250/577 597/257/577 595/256/577 590/249/577
f 589/251/578 591/252/578 596/259/578 594/258/578
f 593/253/579 589/251/579 594/258/579 598/260/579
f 590/249/580 595/256/580 596/259/580 591/252/580
f 67/254/581 593/253/581 598/260/581 69/261/581
f 68/255/582 70/262/582 597/257/582 592/250/582
f 533/189/356 539/197/356 602/264/356 600/263/356
f 532/193/356 599/266/356 601/265/356 538/196/356
f 8/267/583 602/264/583 539/197/583 2/198/583
f 7/268/584 1/195/584 538/196/584 601/265/584
f 532/193/356 544/203/356 599/266/356
f 533/189/356 600/263/356 545/202/356
f 603/269/585 544/203/585 51/211/585 53/270/585
f 54/271/586 52/210/586 545/202/586 604/272/586
f 599/266/356 544/203/356 603/269/356
f 600/263/356 604/272/356 545/202/356
f 9/273/587 7/268/587 601/265/587 605/274/587
f 606/275/588 602/264/588 8/267/588 10/276/588
f 601/265/356 599/266/356 603/269/356 605/274/356
f 602/264/356 606/275/356 604/272/356 600/263/356
f 606/275/589 10/276/589 608/277/589
f 605/274/590 607/278/590 9/273/590
f 11/279/591 9/273/591 607/278/591
f 10/276/592 12/280/592 608/277/592
f 12/280/593 14/281/593 608/277/593
f 13/282/594 11/279/594 607/278/594
f 603/269/595 53/270/595 609/283/595
f 604/272/596 610/284/596 54/271/596
f 611/285/597 609/283/597 53/270/597 55/286/597
f 56/287/598 54/271/598 610/284/598 612/288/598
f 605/274/356 603/269/356 609/283/356
f 606/275/356 610/284/356 604/272/356
f 612/288/356 610/284/356 614/290/356 616/289/356
f 611/285/356 615/292/356 613/291/356 609/283/356
f 609/283/356 613/291/356 605/274/356
f 610/284/356 606/275/356 614/290/356
f 608/277/599 614/290/599 606/275/599
f 607/278/600 605/274/600 613/291/600
f 607/278/601 617/293/601 13/282/601
f 608/277/602 14/281/602 618/294/602
f 613/291/603 617/293/603 607/278/603
f 614/290/604 608/277/604 618/294/604
f 15/295/605 13/282/605 617/293/605 619/296/605
f 17/297/606 15/295/606 619/296/606
f 19/298/607 17/297/607 619/296/607
f 620/299/608 618/294/608 14/281/608 16/300/608
f 16/300/609 18/301/609 620/299/609
f 18/301/610 20/302/610 620/299/610
f 615/292/611 322/304/611 21/303/611 613/291/611
f 323/305/612 616/289/612 614/290/612 22/306/612
f 21/303/613 19/298/613 619/296/613 613/291/613
f 22/306/614 614/290/614 620/299/614 20/302/614
f 614/290/615 618/294/615 620/299/615
f 613/291/616 619/296/616 617/293/616
f 611/285/356 621/308/356 623/307/356 615/292/356
f 612/288/356 616/289/356 624/310/356 622/309/356
f 55/286/617 324/311/617 621/308/617 611/285/617
f 23/312/618 322/304/618 615/292/618 623/307/618
f 612/288/619 622/309/619 325/313/619 56/287/619
f 24/314/620 624/310/620 616/289/620 323/305/620
f 621/308/621 625/316/621 627/315/621 623/307/621
f 622/309/622 624/310/622 628/318/622 626/317/622
f 325/313/623 622/309/623 626/317/623 335/319/623
f 324/311/624 334/320/624 625/316/624 621/308/624
f 25/321/625 23/312/625 623/307/625 627/315/625
f 26/322/626 628/318/626 624/310/626 24/314/626
f 625/316/356 629/324/356 631/323/356 627/315/356
f 626/317/356 628/318/356 632/326/356 630/325/356
f 334/320/627 340/327/627 629/324/627 625/316/627
f 335/319/628 626/317/628 630/325/628 341/328/628
f 27/329/629 25/321/629 627/315/629 631/323/629
f 28/330/630 632/326/630 628/318/630 26/322/630
f 629/324/356 633/332/356 635/331/356 631/323/356
f 630/325/356 632/326/356 636/334/356 634/333/356
f 340/327/631 342/335/631 633/332/631 629/324/631
f 630/325/632 634/333/632 343/336/632 341/328/632
f 31/337/633 27/329/633 631/323/633 635/331/633
f 32/338/634 636/334/634 632/326/634 28/330/634
f 633/332/356 637/340/356 639/339/356 635/331/356
f 634/333/356 636/334/356 640/342/356 638/341/356
f 635/331/635 639/339/635 348/343/635 31/337/635
f 342/335/636 350/344/636 637/340/636 633/332/636
f 634/333/637 638/341/637 351/345/637 343/336/637
f 349/346/638 640/342/638 636/334/638 32/338/638
f 637/340/356 641/348/356 643/347/356 639/339/356
f 638/341/356 640/342/356 644/350/356 642/349/356
f 29/351/639 348/343/639 639/339/639 643/347/639
f 350/344/640 57/352/640 641/348/640 637/340/640
f 351/345/641 638/341/641 642/349/641 58/353/641
f 30/354/642 644/350/642 640/342/642 349/346/642
f 643/347/643 645/355/643 29/351/643
f 37/356/644 29/351/644 645/355/644
f 644/350/645 30/354/645 646/357/645
f 30/354/646 38/358/646 646/357/646
f 645/355/647 363/359/647 37/356/647
f 38/358/648 362/360/648 646/357/648
f 39/361/649 363/359/649 645/355/649 647/362/649
f 648/363/650 646/357/650 362/360/650 40/364/650
f 646/357/356 648/363/356 644/350/356
f 645/355/356 643/347/356 647/362/356
f 641/348/356 647/362/356 643/347/356
f 642/349/356 644/350/356 648/363/356
f 641/348/651 57/352/651 649/365/651
f 642/349/652 650/366/652 58/353/652
f 60/367/653 58/353/653 650/366/653 652/368/653
f 59/369/654 651/370/654 649/365/654 57/352/654
f 61/371/655 653/372/655 651/370/655 59/369/655
f 62/373/656 60/367/656 652/368/656 654/374/656
f 70/262/657 62/373/657 654/374/657 656/375/657
f 69/261/658 655/376/658 653/372/658 61/371/658
f 598/260/659 655/376/659 69/261/659
f 597/257/660 70/262/660 656/375/660
f 655/376/661 598/260/661 657/377/661
f 656/375/662 658/378/662 597/257/662
f 594/258/663 596/259/663 661/380/663 659/379/663
f 595/256/664 660/381/664 661/380/664 596/259/664
f 594/258/665 659/379/665 657/377/665 598/260/665
f 595/256/666 597/257/666 658/378/666 660/381/666
f 647/362/356 641/348/356 649/365/356 662/382/356
f 648/363/356 663/383/356 650/366/356 642/349/356
f 660/381/580 673/385/580 674/384/580 661/380/580
f 657/377/667 659/379/667 672/387/667 670/386/667
f 659/379/578 661/380/578 674/384/578 672/387/578
f 658/378/668 671/388/668 673/385/668 660/381/668
f 653/372/356 666/390/356 664/389/356 651/370/356
f 651/370/356 664/389/356 662/382/356 649/365/356
f 654/374/356 652/368/356 665/392/356 667/391/356
f 652/368/356 650/366/356 663/383/356 665/392/356
f 655/376/356 668/393/356 666/390/356 653/372/356
f 656/375/356 654/374/356 667/391/356 669/394/356
f 655/376/669 657/377/669 670/386/669 668/393/669
f 656/375/670 669/394/670 671/388/670 658/378/670
f 41/395/671 39/361/671 647/362/671 662/382/671
f 664/389/672 385/396/672 41/395/672 662/382/672
f 42/397/673 663/383/673 648/363/673 40/364/673
f 386/398/674 665/392/674 663/383/674 42/397/674
f 43/399/675 385/396/675 664/389/675 666/390/675
f 665/392/676 386/398/676 44/400/676 667/391/676
f 45/401/677 43/399/677 666/390/677 668/393/677
f 46/402/678 669/394/678 667/391/678 44/400/678
f 670/386/667 672/387/667 677/404/667 675/403/667
f 673/385/580 678/406/580 679/405/580 674/384/580
f 671/388/668 676/407/668 678/406/668 673/385/668
f 672/387/578 674/384/578 679/405/578 677/404/578
f 668/393/679 670/386/679 675/403/679 680/408/679
f 669/394/680 681/409/680 676/407/680 671/388/680
f 668/393/681 680/408/681 45/401/681
f 669/394/682 46/402/682 681/409/682
f 45/401/683 680/408/683 401/410/683
f 679/405/684 401/410/684 677/404/684
f 677/404/685 401/410/685 675/403/685
f 675/403/686 401/410/686 680/408/686
f 46/402/687 401/410/687 681/409/687
f 681/409/688 401/410/688 676/407/688
f 678/406/689 676/407/689 401/410/689
f 678/406/690 401/410/690 679/405/690
f 421/7/356 686/8/356 688/22/356 555/32/356
f 555/32/356 688/22/356 687/2/356 422/3/356
f 98/27/691 418/18/691 685/17/691 402/19/691
f 412/21/692 685/17/692 683/1/692 414/49/692
f 99/12/693 403/14/693 684/13/693 417/11/693
f 411/15/694 413/47/694 682/5/694 684/13/694
f 413/47/695 419/53/695 686/8/695 682/5/695
f 414/49/696 683/1/696 687/2/696 420/23/696
